<?xml version="1.0" standalone="no"?>
<!DOCTYPE svg PUBLIC "-//W3C//DTD SVG 20010904//EN"
 "http://www.w3.org/TR/2001/REC-SVG-20010904/DTD/svg10.dtd">
<svg version="1.0" xmlns="http://www.w3.org/2000/svg"
 width="1132.000000pt" height="728.000000pt" viewBox="0 0 1132.000000 728.000000"
 preserveAspectRatio="xMidYMid meet">
<metadata>
Created by potrace 1.16, written by Peter Selinger 2001-2019
</metadata>
<g transform="translate(0.000000,728.000000) scale(0.100000,-0.100000)"
fill="#000000" stroke="none">
<path d="M1090 7246 c-198 -146 -222 -414 -63 -714 52 -100 101 -173 203 -307
102 -133 132 -180 158 -244 28 -69 28 -73 -5 -65 -98 21 -183 57 -293 122
-112 67 -197 136 -450 362 -41 37 -91 80 -110 96 -19 16 -37 31 -40 34 -3 3
-23 19 -45 36 -22 16 -47 35 -57 43 -43 36 -126 73 -174 78 -62 7 -96 -10
-135 -65 -39 -55 -52 -107 -52 -202 1 -90 30 -189 73 -250 26 -36 25 -40 -4
-40 -33 0 -73 -34 -86 -76 -9 -28 -9 -50 0 -96 59 -301 198 -431 600 -563 288
-94 338 -116 600 -263 111 -62 221 -143 292 -214 108 -108 158 -144 234 -168
144 -44 303 -16 542 96 41 19 78 32 82 29 5 -3 30 -1 57 4 100 19 398 58 538
71 228 19 567 32 577 22 15 -15 -30 -309 -51 -334 -3 -4 -40 4 -81 18 -97 32
-300 47 -300 21 0 -11 20 -20 70 -31 88 -20 260 -81 277 -99 11 -11 10 -22 -3
-67 -9 -30 -25 -70 -36 -87 l-20 -33 -109 0 c-60 0 -109 3 -109 7 0 4 12 20
27 35 19 20 24 31 16 39 -7 7 -24 -5 -56 -41 -29 -32 -56 -52 -76 -56 -39 -8
-41 8 -6 76 27 53 31 70 15 70 -15 0 -47 -57 -66 -116 -15 -48 -22 -55 -89
-98 -89 -56 -234 -197 -296 -286 -24 -36 -64 -103 -88 -150 -24 -47 -47 -89
-51 -93 -4 -5 -29 6 -56 22 -38 25 -59 31 -102 31 -29 0 -63 -5 -74 -11 -19
-10 -26 -7 -56 27 -60 69 -311 322 -395 398 -145 132 -359 296 -386 296 -22 0
-10 -26 20 -44 48 -28 145 -103 258 -197 84 -71 386 -367 485 -476 l28 -31
-43 -66 c-24 -36 -47 -66 -51 -66 -5 0 -27 12 -51 27 -23 15 -64 41 -92 59
-202 128 -611 306 -855 371 -173 46 -245 62 -253 54 -16 -16 2 -29 46 -36 72
-12 334 -83 382 -105 11 -5 40 -16 65 -24 190 -63 481 -211 738 -374 10 -6 8
-20 -8 -67 -30 -86 -28 -224 5 -340 14 -50 30 -99 35 -110 4 -11 20 -55 35
-99 15 -43 40 -110 56 -147 15 -38 26 -69 24 -69 -2 0 -43 26 -92 59 -546 363
-534 356 -643 346 -41 -4 -120 -9 -175 -10 -93 -1 -105 1 -177 32 -92 40 -130
42 -163 8 -29 -28 -30 -40 -10 -89 15 -36 15 -38 -10 -67 -59 -71 -11 -139
110 -158 37 -6 40 -8 37 -37 -8 -84 108 -119 229 -69 13 5 18 -2 23 -29 19
-99 180 -154 221 -76 21 41 19 68 -10 106 -30 39 -31 55 -5 79 18 17 20 16 49
-6 30 -24 84 -121 97 -174 3 -17 28 -75 55 -130 47 -97 58 -117 108 -200 27
-43 198 -302 248 -375 l31 -45 -13 -75 c-8 -41 -14 -103 -15 -137 l0 -62 -27
15 c-40 20 -117 18 -162 -6 -22 -10 -56 -40 -78 -65 l-39 -45 -50 48 c-28 27
-72 59 -100 72 -58 29 -164 38 -219 20 -46 -15 -99 -61 -115 -99 -9 -23 -24
-34 -64 -47 -129 -43 -186 -98 -186 -180 0 -52 31 -111 90 -172 37 -37 62 -53
88 -58 20 -3 49 -18 65 -32 29 -28 110 -146 172 -252 48 -82 68 -114 139 -220
174 -260 293 -314 442 -201 105 79 147 182 147 354 -1 95 0 97 21 91 50 -16
110 -67 351 -303 154 -151 230 -206 333 -243 72 -26 204 -34 295 -18 64 11 71
11 96 -7 80 -60 189 -127 291 -181 172 -90 293 -127 393 -120 118 7 184 77
195 205 2 35 7 63 9 63 2 0 27 -19 56 -41 94 -75 172 -90 232 -45 32 25 75
101 75 133 0 10 16 27 37 38 55 30 78 68 77 123 -4 124 -124 281 -314 411
-200 137 -333 179 -426 135 -27 -13 -37 -14 -49 -4 -8 7 -15 16 -15 21 0 5
-13 28 -30 51 -16 22 -30 44 -30 48 0 32 250 272 320 307 l55 28 280 0 c232 1
294 4 360 19 123 27 228 81 313 161 53 49 78 66 87 59 181 -129 252 -181 263
-191 7 -7 20 -17 29 -22 15 -8 15 -18 4 -95 -27 -198 47 -348 209 -423 54 -24
56 -27 68 -79 37 -159 146 -261 333 -313 89 -25 140 -26 246 -6 99 19 131 19
190 -1 62 -21 101 -49 258 -184 147 -127 221 -180 303 -218 50 -23 70 -26 167
-26 106 -1 113 1 180 34 163 81 210 193 117 282 -46 44 -99 72 -181 93 -61 16
-134 41 -196 69 -16 8 -50 23 -75 34 -62 28 -189 113 -221 148 -44 48 -119
164 -119 183 0 36 26 45 138 43 103 -1 204 -12 287 -31 113 -26 157 -31 264
-31 123 1 241 21 318 56 84 38 261 212 304 301 51 103 19 243 -66 290 -34 19
-55 23 -135 23 -52 0 -113 -5 -135 -10 -111 -28 -154 -43 -234 -78 -160 -69
-644 -94 -783 -40 -16 6 -28 15 -28 20 0 29 206 216 256 232 65 20 245 177
330 287 78 102 134 230 134 308 0 86 -59 250 -109 301 -43 45 -106 52 -176 19
-55 -26 -146 -113 -200 -192 -113 -165 -180 -245 -313 -375 -81 -78 -151 -142
-156 -142 -5 0 -2 8 6 18 296 343 734 1066 915 1512 8 19 18 44 23 55 4 11 11
28 14 38 6 19 18 20 91 7 157 -29 295 -42 430 -41 83 0 157 2 165 3 30 5 287
-14 380 -27 205 -31 315 -68 666 -223 148 -66 324 -138 391 -160 195 -65 350
-77 436 -33 l36 18 32 -33 c60 -62 217 -130 352 -154 91 -16 96 -19 104 -48
16 -65 79 -138 151 -173 70 -34 227 -40 276 -10 36 22 116 105 116 119 0 5 18
17 41 27 58 26 125 105 146 171 16 51 16 57 -1 109 -9 30 -32 75 -51 99 l-34
45 20 47 c27 61 29 171 4 211 -55 87 -187 135 -313 113 -36 -6 -78 -18 -93
-27 -26 -16 -28 -15 -110 45 -242 175 -436 251 -699 273 -235 20 -340 -1 -428
-88 -29 -29 -57 -53 -62 -53 -13 0 -127 129 -175 200 -25 36 -58 103 -75 150
l-30 84 26 73 c24 65 28 71 46 62 10 -6 21 -18 24 -27 28 -98 139 -225 244
-281 45 -24 70 -31 114 -31 146 0 206 109 221 400 18 374 95 692 212 882 22
36 25 37 77 37 99 -2 222 76 265 166 28 60 28 140 -1 208 -12 29 -27 58 -33
65 -31 41 -79 81 -133 112 l-62 35 0 51 c0 75 -23 120 -104 199 -90 91 -149
120 -236 120 -65 0 -104 -13 -165 -54 -29 -19 -32 -19 -60 -4 -39 21 -167 23
-215 4 -55 -22 -127 -78 -151 -117 -23 -37 -39 -33 -39 11 0 32 131 145 225
192 116 59 183 71 465 83 446 18 662 59 867 163 106 53 233 181 206 207 -4 5
-39 -2 -78 -15 -144 -47 -258 -59 -545 -58 -146 1 -317 6 -380 12 -255 24
-653 11 -845 -28 -117 -23 -261 -88 -347 -156 -79 -62 -134 -134 -233 -303
-267 -457 -383 -633 -460 -701 -161 -142 -238 -272 -276 -468 -16 -80 -34 -88
-179 -88 -95 0 -110 3 -161 28 -31 16 -66 39 -78 51 l-22 23 48 5 c75 7 157
50 221 116 103 105 142 219 142 422 0 180 26 323 83 456 69 164 177 283 320
354 46 23 102 44 125 47 44 6 62 27 34 42 -96 50 -356 101 -519 101 -163 0
-360 -36 -568 -105 -100 -33 -372 -166 -422 -207 -17 -14 -233 118 -233 142 0
22 40 120 57 141 7 8 13 18 13 22 0 14 62 97 94 125 18 16 73 57 122 90 148
102 284 246 284 303 0 64 -62 63 -223 -5 -150 -63 -228 -80 -577 -126 -200
-27 -248 -56 -374 -230 -50 -69 -98 -136 -106 -148 -15 -23 -16 -23 -140 -12
-101 9 -158 9 -299 -4 -166 -15 -213 -26 -183 -45 8 -4 77 -11 155 -14 238
-11 397 -29 397 -46 0 -22 -99 -103 -149 -122 -31 -11 -74 -31 -97 -44 -61
-36 -196 -184 -251 -275 -35 -58 -53 -80 -68 -80 -34 0 -84 -51 -105 -107 -11
-29 -18 -53 -15 -53 3 0 21 16 41 35 40 40 72 49 53 14 -18 -35 -46 -134 -69
-247 l-13 -64 -34 7 c-136 25 -616 64 -799 65 l-91 0 -26 83 c-15 45 -32 115
-39 155 -12 70 -28 97 -28 48 0 -36 40 -207 56 -238 27 -52 23 -55 -93 -62
-60 -4 -155 -14 -212 -22 -134 -18 -129 -18 -143 11 -15 33 -27 32 -25 -2 2
-28 1 -28 -88 -40 -161 -20 -247 -32 -415 -57 -91 -13 -185 -27 -210 -31 -25
-3 -83 -13 -130 -21 -47 -7 -155 -25 -240 -39 -85 -14 -167 -28 -182 -32 -23
-4 -28 -1 -34 21 -9 37 4 143 22 178 19 37 70 85 109 104 47 22 135 103 167
153 36 58 39 128 6 165 -28 31 -123 79 -202 101 -80 23 -214 17 -271 -13 -98
-50 -179 -160 -192 -261 -3 -23 -9 -44 -13 -46 -11 -7 -201 176 -273 263 -125
150 -177 240 -227 390 -81 243 -204 510 -302 655 -56 82 -129 146 -168 146 -8
0 -35 -14 -60 -33z m130 -52 c103 -96 255 -398 370 -734 52 -154 105 -245 226
-390 60 -73 195 -208 262 -262 28 -23 32 -33 32 -75 0 -65 -26 -169 -50 -203
-35 -49 -21 -69 18 -27 32 34 50 96 62 215 13 129 25 182 56 243 68 136 212
196 372 155 127 -32 222 -93 222 -143 0 -66 -71 -150 -200 -235 -112 -74 -135
-131 -127 -306 3 -62 1 -143 -4 -180 -17 -117 -80 -223 -150 -253 -32 -13 -39
-39 -11 -39 40 1 128 88 157 158 14 32 34 39 69 26 27 -10 18 -32 -24 -60 -44
-29 -51 -49 -20 -59 11 -3 20 -10 20 -15 0 -37 -335 -196 -498 -235 -47 -12
-98 -16 -158 -13 -122 5 -181 33 -282 135 -137 139 -254 218 -528 360 -110 57
-196 91 -357 144 -288 94 -379 140 -483 244 -71 71 -84 90 -112 161 -35 90
-54 191 -45 234 7 37 46 64 81 55 14 -3 55 -34 91 -67 103 -97 310 -224 631
-389 69 -35 144 -79 168 -97 35 -27 44 -30 49 -17 3 9 -2 22 -13 31 -32 25
-145 90 -234 134 -326 163 -566 325 -652 440 -126 168 -142 388 -37 494 38 37
41 38 87 32 83 -11 184 -83 460 -329 244 -217 351 -297 492 -367 88 -44 156
-68 216 -77 46 -6 48 -9 60 -75 6 -39 20 -49 30 -24 10 26 -36 179 -75 251
-21 39 -90 139 -153 223 -130 173 -207 303 -252 430 -27 77 -30 100 -31 197 0
123 13 170 68 248 39 54 102 107 129 107 10 0 41 -21 68 -46z m5972 -44 c-12
-11 -26 -20 -33 -20 -15 0 -38 -31 -38 -50 0 -10 3 -8 9 5 6 13 9 15 9 5 0
-17 -14 -36 -48 -65 -21 -17 -24 -18 -18 -2 7 19 0 22 -22 8 -9 -6 -10 -11 -3
-15 18 -11 2 -34 -19 -29 -22 6 -26 41 -4 49 24 10 17 19 -15 21 -24 2 -30 -2
-30 -17 0 -11 -5 -20 -10 -20 -6 0 -10 -22 -9 -50 2 -34 5 -47 11 -38 7 10 8
10 5 -2 -2 -8 -9 -14 -15 -13 -5 1 -16 -4 -22 -12 -7 -8 -21 -15 -32 -15 -11
0 -26 -7 -34 -15 -9 -8 -12 -15 -8 -15 4 0 -10 -14 -31 -30 -21 -17 -45 -40
-52 -50 -17 -23 -48 -27 -40 -5 4 8 2 17 -2 20 -5 3 -12 -3 -15 -12 -4 -9 -1
-20 5 -24 7 -4 9 -17 5 -34 -5 -21 -10 -25 -19 -16 -18 18 -30 13 -24 -11 8
-28 -2 -70 -14 -62 -9 5 -12 -5 -11 -41 1 -17 0 -17 -4 -2 -3 9 -10 17 -15 17
-5 0 -9 7 -9 15 0 8 -7 15 -15 15 -11 0 -15 -11 -15 -40 0 -33 -3 -40 -20 -40
-13 0 -20 7 -20 20 0 11 5 20 10 20 6 0 10 9 10 21 0 14 -5 19 -17 17 -11 -2
-17 -11 -15 -21 2 -13 -4 -17 -25 -17 -20 0 -24 -3 -14 -9 8 -5 20 -7 28 -4 7
3 13 0 13 -6 0 -6 -7 -11 -16 -11 -24 0 -54 19 -54 35 0 19 -32 35 -67 34 -20
-1 -22 -3 -8 -6 29 -6 65 -25 65 -34 0 -5 -19 1 -42 11 -33 15 -42 24 -40 40
2 11 -2 20 -7 20 -6 0 -11 -7 -11 -15 0 -17 -16 -20 -25 -5 -8 12 -55 13 -74
1 -7 -5 -10 -14 -7 -20 4 -6 2 -11 -3 -11 -6 0 -11 6 -11 13 0 8 -4 7 -10 -3
-5 -8 -10 -10 -10 -5 0 6 -19 11 -42 12 -28 1 -37 -2 -27 -8 8 -5 26 -9 40 -9
14 0 34 -7 45 -16 19 -15 19 -15 -1 -10 -11 2 -45 10 -75 16 -30 7 -63 16 -72
21 -10 5 -26 9 -35 10 -13 0 -14 2 -4 6 11 5 11 7 0 15 -11 7 -11 11 -1 15 6
2 12 9 12 15 0 6 -6 6 -15 -2 -12 -10 -15 -10 -15 3 0 8 10 18 23 22 13 4 17
8 9 12 -6 2 -10 9 -7 14 4 5 17 2 29 -7 21 -13 25 -13 40 1 9 9 15 24 15 33
-1 15 -2 15 -6 0 -7 -26 -20 -22 -28 9 -4 17 -2 29 4 31 6 2 11 11 12 20 0 11
2 13 6 4 3 -7 -1 -19 -7 -27 -8 -10 -9 -15 -2 -15 6 0 13 4 16 9 3 4 19 11 36
14 37 8 52 51 25 71 -15 11 -15 13 -1 25 9 7 27 11 41 9 14 -3 28 -1 31 3 3 5
-4 9 -16 9 -12 0 -18 4 -15 11 4 6 19 7 36 4 29 -7 41 8 17 19 -7 3 17 4 55 2
69 -3 104 9 45 17 l-33 4 33 1 c21 1 35 -3 38 -13 4 -8 14 -15 23 -15 14 0 14
2 1 10 -12 8 -8 10 15 11 30 2 30 2 -5 9 -35 7 -35 7 -5 9 17 0 47 -4 68 -10
21 -5 48 -7 60 -2 20 6 19 8 -13 14 -32 7 -32 7 5 3 22 -3 60 -5 84 -4 52 1
51 -6 -5 -19 -33 -7 -27 -8 44 -8 45 1 82 4 82 8 0 10 -39 22 -100 30 -48 6
-45 6 23 4 70 -3 102 7 60 18 -10 3 7 6 37 7 42 1 49 4 30 9 -22 7 -20 9 20
16 25 4 60 7 78 6 21 -1 31 3 30 11 -2 6 5 14 14 16 13 2 16 -1 12 -12 -7 -18
4 -20 26 -6 13 9 13 11 0 20 -13 8 -11 11 8 16 12 4 22 10 22 16 0 5 9 4 20
-2 20 -10 60 5 60 22 0 5 5 8 11 8 5 0 7 -4 4 -10 -3 -5 -1 -10 4 -10 6 0 11
7 11 15 0 9 9 15 22 15 l22 0 -22 -20z m3798 -389 c0 -14 -89 -85 -150 -119
-181 -101 -404 -144 -837 -162 -153 -6 -270 -16 -320 -26 -88 -19 -257 -24
-273 -8 -7 7 4 25 35 59 25 27 45 55 45 61 0 9 -27 11 -99 7 -115 -7 -134 4
-82 46 47 39 41 51 -24 44 -45 -5 -56 -3 -61 11 -4 9 -4 19 -1 22 3 3 47 12
98 21 123 21 504 23 819 4 354 -21 657 -7 805 38 40 12 45 13 45 2z m-1787
-157 c1 -34 11 -45 20 -21 4 7 6 6 6 -4 1 -9 16 -24 34 -33 23 -11 26 -16 13
-16 -11 0 -28 7 -38 17 -20 18 -23 17 -32 -14 -5 -14 -3 -23 3 -23 6 0 11 4
11 9 0 4 32 6 70 3 48 -3 70 -1 70 7 0 6 16 11 38 10 20 -1 29 -3 20 -6 -10
-2 -18 -10 -18 -17 0 -6 -9 -18 -20 -26 -11 -8 -20 -22 -20 -32 0 -10 -5 -18
-11 -18 -6 0 -9 9 -6 19 6 26 -14 33 -72 26 -65 -7 -38 3 34 14 l60 9 -68 -1
c-51 0 -71 -5 -83 -19 -12 -12 -25 -16 -43 -11 -26 6 -26 6 -7 -15 11 -13 16
-30 13 -42 -6 -22 8 -28 16 -7 3 6 6 2 6 -9 1 -12 -6 -24 -14 -28 -8 -3 -14 0
-12 6 1 6 -4 13 -12 16 -8 3 -11 0 -7 -7 8 -13 -3 -14 -22 -2 -10 6 -9 10 7
14 15 3 21 13 21 31 0 24 -3 26 -47 27 -48 2 -48 2 -13 10 31 7 30 7 -10 3
-62 -6 -70 -6 -107 2 -26 5 -33 3 -33 -9 0 -12 -45 -37 -66 -37 -14 0 0 19 19
25 l22 8 -23 4 c-47 9 -70 -17 -33 -37 13 -6 28 -7 45 0 14 5 28 5 31 1 4 -8
-22 -21 -51 -25 -6 0 -18 -9 -28 -18 -10 -10 -26 -18 -37 -18 -10 0 -19 -7
-19 -15 0 -8 -4 -15 -9 -15 -6 0 -24 -13 -42 -30 -18 -16 -36 -27 -41 -24 -14
9 -5 46 15 66 9 10 17 25 17 33 0 8 4 15 10 15 5 0 7 -6 4 -14 -5 -13 24 -31
34 -21 3 3 0 5 -6 5 -8 0 -10 11 -7 33 4 22 3 28 -4 17 -6 -8 -12 -12 -15 -10
-2 3 4 16 16 30 11 14 17 20 14 13 -9 -16 4 -43 20 -43 8 0 14 -7 14 -16 0
-14 3 -14 15 -4 13 11 12 15 -10 35 -21 20 -22 25 -10 35 8 7 15 20 15 29 0
17 27 44 50 49 8 2 21 11 29 21 11 13 22 16 36 10 35 -14 48 -11 31 7 -9 8
-20 12 -26 9 -5 -3 -10 -4 -10 -1 0 9 58 36 77 35 14 0 13 -2 -5 -10 -28 -11
-25 -29 6 -40 20 -8 22 -5 22 30 0 28 5 40 18 45 9 3 22 8 28 11 6 3 11 -13
13 -42 3 -61 11 -70 11 -12 0 51 7 65 35 71 26 5 47 -24 48 -68z m-1207 -5 c4
-6 19 -8 37 -5 38 8 163 -4 147 -14 -7 -4 -21 -5 -31 -3 -11 3 -25 0 -32 -6
-18 -14 -101 -25 -92 -12 8 14 -38 19 -194 24 -78 3 -128 1 -120 -4 10 -6 3
-9 -21 -10 -19 0 -29 -3 -22 -6 18 -7 16 -97 -3 -113 -17 -14 -21 0 -5 16 7 7
-2 10 -25 10 -31 0 -35 -3 -34 -25 1 -17 3 -20 6 -8 5 18 18 23 28 8 6 -10
-63 -71 -80 -71 -5 0 -3 5 5 10 17 11 10 13 -14 4 -8 -3 -12 -12 -9 -21 4 -11
2 -14 -5 -9 -17 10 -15 46 2 46 30 0 28 23 -4 52 -41 35 -72 44 -113 29 l-32
-11 40 5 c22 2 34 2 28 -1 -9 -4 -13 -27 -12 -72 1 -37 4 -55 6 -39 4 27 17
35 28 18 3 -5 1 -12 -5 -16 -13 -8 -13 -25 1 -25 6 0 13 9 16 20 3 11 9 20 13
20 4 0 10 -9 13 -20 3 -11 1 -20 -3 -20 -5 0 -21 -11 -36 -25 -19 -18 -31 -22
-38 -15 -5 5 -19 10 -30 10 -21 -1 -21 -1 -1 -16 20 -15 20 -15 -4 -35 -12
-10 -28 -16 -34 -12 -7 4 -8 0 -4 -11 6 -14 3 -16 -14 -11 -13 4 -19 3 -16 -2
4 -6 -14 -31 -38 -57 -25 -25 -45 -42 -45 -37 0 6 5 13 11 17 8 4 4 11 -11 19
-15 8 -19 15 -11 19 6 4 11 12 11 17 0 6 -4 7 -10 4 -5 -3 -10 1 -10 9 0 9 -5
16 -11 16 -5 0 -7 -4 -4 -10 3 -5 1 -10 -4 -10 -14 0 -12 -103 2 -112 19 -11
-16 -34 -51 -32 -25 1 -30 -1 -22 -11 6 -7 8 -20 4 -29 -3 -9 -2 -16 4 -16 5
0 13 11 16 25 4 14 11 23 16 20 13 -8 -22 -76 -37 -70 -7 2 -13 3 -13 1 0 -3
-3 -13 -6 -23 -5 -15 -4 -15 5 -3 9 13 11 13 11 0 0 -9 -7 -25 -15 -37 -8 -11
-23 -58 -34 -103 -17 -75 -18 -87 -5 -129 21 -68 47 -93 99 -95 11 0 23 -8 27
-18 9 -23 30 -23 26 0 -2 12 4 17 22 17 14 0 34 8 44 18 11 9 25 17 30 17 6 0
-2 -11 -18 -25 -16 -14 -32 -25 -36 -25 -3 0 -16 -9 -29 -21 -18 -17 -25 -18
-36 -9 -10 8 -15 9 -15 2 0 -6 10 -18 23 -28 20 -15 20 -16 2 -12 -15 4 -20
-1 -21 -18 -2 -21 0 -22 14 -7 22 22 27 1 8 -36 -9 -16 -12 -32 -8 -35 5 -3
16 12 26 34 9 21 23 41 31 44 15 5 73 -11 89 -25 9 -8 -30 1 -66 16 -13 5 -18
2 -18 -9 0 -9 -4 -16 -10 -16 -19 0 -33 -45 -32 -105 2 -55 1 -58 -12 -36 -21
37 -29 9 -21 -71 5 -51 4 -69 -4 -64 -6 4 -18 0 -27 -8 -8 -9 -25 -22 -36 -31
-12 -8 -19 -17 -16 -21 4 -3 23 6 42 21 42 32 49 23 9 -11 -16 -13 -39 -25
-53 -25 -14 -1 -32 -3 -40 -4 -8 -1 -20 -3 -26 -4 -7 0 -11 -12 -10 -25 0 -15
6 -22 14 -19 7 3 10 13 7 24 -7 22 7 25 24 5 9 -11 5 -18 -22 -35 -19 -12 -42
-21 -51 -21 -10 0 -15 -3 -13 -7 3 -5 -6 -9 -19 -9 -13 -1 -21 2 -18 7 3 5 -2
9 -10 9 -9 0 -16 -3 -16 -6 0 -13 26 -30 40 -27 8 2 -3 -5 -24 -17 -22 -11
-48 -20 -57 -20 -10 0 -22 -7 -27 -16 -6 -11 -11 -13 -16 -5 -4 6 -15 11 -24
11 -15 0 -15 -2 -2 -10 8 -5 11 -10 5 -10 -5 0 -3 -5 5 -10 9 -6 10 -10 3 -10
-6 0 -18 7 -26 15 -13 13 -16 13 -21 0 -3 -9 -18 -15 -36 -15 -19 0 -30 -5
-29 -12 1 -7 1 -21 0 -31 -1 -15 -4 -16 -23 -6 -20 11 -21 10 -11 -3 11 -12 9
-17 -13 -27 -14 -6 -31 -8 -37 -5 -7 4 -9 4 -5 -1 11 -12 -39 -35 -59 -28 -10
4 -14 2 -10 -4 7 -11 -13 -23 -36 -23 -9 0 -8 3 0 8 7 4 -18 9 -56 10 -42 2
-72 -2 -76 -8 -5 -8 4 -9 30 -4 26 4 36 3 31 -4 -3 -6 0 -12 6 -15 7 -3 0 -10
-17 -16 -16 -6 -38 -15 -47 -21 -16 -9 -65 -15 -213 -24 -47 -3 -60 -2 -40 4
25 6 23 7 -14 4 -24 -2 -56 -4 -70 -4 -19 0 -22 -3 -12 -9 8 -5 59 -8 115 -6
70 1 92 -1 71 -7 -16 -4 -64 -7 -105 -6 -73 2 -76 2 -113 42 -20 21 -35 42
-32 44 3 3 11 0 17 -6 9 -9 14 -6 23 11 6 12 19 21 28 21 14 -2 17 8 16 60 -1
33 -3 53 -6 44 -5 -21 -53 -25 -53 -5 0 8 7 29 16 47 l17 33 13 -29 c14 -29
13 -15 -2 37 -4 16 -2 20 13 17 14 -2 18 3 18 26 -1 22 13 42 64 92 36 36 70
63 76 61 5 -2 16 -16 23 -30 9 -18 21 -27 38 -27 32 0 30 12 -6 48 -29 29 -30
42 -3 42 7 0 13 -7 13 -15 0 -8 5 -15 10 -15 6 0 10 6 10 14 0 10 7 12 23 9
15 -4 19 -2 12 5 -5 5 -19 12 -30 15 -19 5 -19 5 2 12 12 4 31 21 41 39 17 29
22 31 67 28 29 -3 43 -7 35 -12 -8 -5 2 -8 23 -7 22 1 32 4 24 9 -9 6 -9 8 1
8 35 0 51 64 21 80 -9 5 -45 14 -80 19 l-64 10 65 -3 c36 -2 74 -6 85 -10 13
-5 11 -2 -5 8 -14 8 -33 15 -42 16 -10 0 -18 5 -18 10 0 6 -15 10 -32 9 -31
-1 -32 -1 -8 -9 23 -7 22 -8 -10 -9 -19 -1 -51 -5 -69 -11 -36 -10 -55 -5 -32
9 17 11 -9 21 -56 21 -36 0 -36 0 -30 -37 5 -28 4 -34 -4 -23 -8 12 -9 11 -7
-5 3 -15 11 -19 33 -18 28 2 28 2 7 -12 -11 -8 -28 -12 -38 -8 -12 4 -15 3
-10 -5 4 -6 2 -20 -4 -31 -7 -14 -6 -23 3 -33 11 -11 5 -19 -30 -45 -23 -18
-45 -28 -48 -23 -8 13 5 61 15 55 5 -3 8 4 7 15 -1 22 -13 27 -20 8 -3 -7 -6
-3 -6 10 -1 13 5 22 14 22 17 0 20 25 5 35 -6 4 -4 15 5 29 11 17 16 57 18
150 1 78 6 125 12 123 14 -5 19 -127 5 -127 -12 0 -12 -66 0 -95 7 -16 9 -17
9 -3 1 9 7 18 14 20 8 3 12 37 13 119 l2 114 -8 -101 c-4 -55 -12 -109 -19
-120 -9 -15 -10 -11 -4 21 5 22 8 79 8 128 l0 87 30 -6 c26 -6 28 -5 16 10
-11 14 -9 20 22 51 37 37 65 43 112 25 22 -8 24 -13 15 -29 -14 -27 -13 -38 3
-17 17 24 50 11 41 -17 -5 -16 -3 -19 10 -14 10 4 15 3 11 -3 -3 -6 -1 -10 5
-10 8 0 10 -9 5 -27 -5 -23 -4 -25 9 -14 13 11 16 11 16 -2 0 -9 -8 -21 -17
-26 -16 -9 -16 -10 -1 -11 9 0 19 6 21 13 4 9 8 8 16 -3 10 -13 12 -13 21 0 5
8 9 24 8 35 -1 17 -1 17 -5 -2 -2 -13 -8 -23 -13 -23 -14 0 -20 30 -10 56 13
33 13 57 0 49 -6 -3 -10 4 -10 17 0 18 2 20 10 8 8 -12 10 -12 10 -1 0 8 -7
19 -16 26 -10 7 -19 32 -22 63 -4 50 -15 66 -25 40 -3 -8 -6 -6 -6 4 -2 48
-85 97 -133 79 -15 -5 -41 -6 -62 -1 -33 7 -36 6 -36 -15 0 -16 -15 -33 -54
-60 -30 -21 -57 -44 -60 -51 -3 -8 -12 -11 -22 -7 -13 5 -16 3 -11 -10 5 -14
2 -16 -21 -11 -24 6 -25 5 -11 -7 16 -13 15 -16 -7 -37 -24 -23 -36 -8 -12 16
9 9 9 12 -1 12 -7 0 -15 -9 -18 -19 -4 -15 -13 -18 -41 -16 -21 1 -26 0 -13
-2 30 -6 55 -29 41 -38 -5 -3 -10 -1 -10 5 0 6 -10 10 -22 8 -18 -2 -24 -10
-25 -33 l-2 -30 10 28 c6 15 15 27 20 27 16 0 9 -19 -20 -52 -15 -18 -34 -43
-40 -56 -9 -16 -18 -21 -31 -17 -14 5 -17 2 -13 -13 2 -10 -3 -24 -11 -31 -18
-15 -22 -1 -6 15 8 8 7 14 -2 21 -10 9 -13 3 -15 -28 -2 -22 -9 -47 -17 -55
-18 -18 -30 -18 -23 0 3 8 -2 16 -12 19 -17 4 -17 2 -5 -22 19 -36 18 -43 -6
-36 -12 4 -20 2 -20 -5 0 -6 5 -8 10 -5 20 12 9 -12 -14 -33 -23 -20 -25 -20
-31 -3 -3 12 -14 17 -28 16 -20 -3 -22 1 -19 47 4 44 6 48 25 43 12 -2 16 -2
10 1 -7 3 -13 18 -13 34 0 16 6 31 13 34 6 2 1 4 -13 3 -22 -2 -25 2 -22 28 2
26 1 27 -9 12 -6 -10 -8 -25 -5 -32 3 -8 0 -17 -6 -21 -14 -9 -3 69 15 96 13
22 27 26 27 9 0 -6 12 -9 28 -7 22 2 27 8 30 33 l2 30 -15 -27 c-13 -24 -18
-26 -35 -16 -14 9 -16 16 -9 29 5 10 9 26 9 36 0 10 9 24 20 31 12 7 18 17 14
23 -4 7 -14 3 -28 -9 -11 -10 -29 -22 -38 -25 -10 -4 -18 -14 -18 -22 0 -9 -4
-13 -10 -10 -5 3 -10 -3 -10 -14 0 -11 -7 -26 -15 -34 -8 -8 -16 -37 -17 -65
-2 -27 -6 -48 -10 -45 -5 2 -8 -1 -8 -6 0 -6 5 -11 11 -11 6 0 8 -10 5 -22 -3
-13 -3 -17 0 -10 3 6 10 9 16 6 6 -4 14 0 19 7 6 9 9 10 9 2 0 -6 -5 -15 -10
-18 -6 -4 -8 -11 -5 -16 3 -5 0 -6 -8 -3 -8 3 -18 0 -23 -7 -4 -7 -3 -10 3 -6
13 8 23 -16 22 -51 -1 -21 -2 -23 -6 -7 -7 26 -23 46 -33 40 -4 -3 -11 2 -14
11 -3 8 -2 12 4 9 6 -4 10 6 10 22 0 22 -2 25 -10 13 -8 -12 -10 -11 -10 7 0
12 -5 34 -12 48 -8 19 -8 31 0 50 6 14 8 25 3 25 -5 0 -12 -6 -14 -12 -3 -7
-6 -3 -6 9 -1 12 -5 25 -11 28 -12 7 -13 35 -2 35 5 0 15 -12 22 -27 13 -27
14 -27 18 -5 3 21 22 32 22 12 0 -5 5 -10 10 -10 15 0 12 17 -7 36 -17 16 -18
16 -21 1 -4 -22 -11 -21 -38 4 -13 12 -20 28 -17 37 4 9 2 13 -4 9 -5 -4 -15
5 -21 18 -7 15 -8 25 -2 25 6 0 10 -6 10 -12 0 -9 4 -8 10 2 5 8 9 24 9 35 -1
16 -2 16 -9 -5 -4 -14 -8 -19 -9 -12 -1 7 -5 10 -11 7 -5 -3 -19 16 -32 42
-12 26 -24 50 -27 53 -28 24 -31 38 -16 66 8 16 15 36 15 45 0 10 12 19 33 24
22 5 26 9 15 12 -10 2 -18 9 -18 14 0 14 64 51 68 39 2 -6 9 -10 17 -10 33 0
52 -134 26 -183 -15 -28 -7 -52 9 -27 6 8 10 10 10 5 0 -6 16 -11 36 -12 20 0
31 3 24 7 -8 5 -9 22 -4 56 6 43 8 46 16 24 6 -16 5 -26 -1 -28 -6 -2 -11 -13
-11 -25 0 -16 3 -18 12 -9 6 6 11 24 11 40 0 27 26 43 28 18 1 -16 17 35 18
59 1 16 -1 17 -9 5 -7 -11 -10 -7 -10 17 0 17 -5 44 -11 60 -7 15 -11 40 -10
55 1 14 -3 29 -8 33 -8 4 -8 12 0 27 8 15 8 19 0 14 -6 -4 -20 -1 -31 7 -20
14 -19 15 22 39 37 22 44 24 56 11 9 -8 24 -12 36 -9 12 3 36 6 54 6 56 0 37
38 -21 41 -20 1 -20 2 3 8 14 4 31 3 38 -2 8 -7 12 -5 12 6 0 17 49 26 120 22
34 -2 40 -1 25 6 -15 7 -9 8 20 4 87 -11 160 -15 135 -6 -17 6 11 8 81 7 59 0
105 -4 102 -9 -8 -14 61 -3 93 14 33 18 114 24 114 8 0 -9 -14 -12 -60 -12
-15 0 -18 -2 -7 -4 13 -3 17 -15 17 -49 l0 -44 40 0 c40 0 40 0 40 40 0 34 3
40 26 46 14 4 22 9 17 13 -16 11 -13 51 3 44 7 -3 11 -9 8 -15 -7 -11 31 -50
40 -40 4 3 -4 12 -16 19 -31 17 -7 16 27 -1 17 -9 22 -16 13 -19 -7 -3 -3 -6
10 -6 12 -1 31 -6 41 -13 16 -10 17 -13 5 -26 -22 -21 -11 -37 24 -35 36 3 47
-10 43 -54 -2 -28 0 -31 22 -29 13 2 40 15 59 29 19 15 40 27 47 27 6 0 14 6
17 14 4 10 20 13 60 11 32 -2 54 1 54 7 0 6 -11 8 -27 4 -28 -7 -28 -7 7 23
19 17 43 31 53 31 10 0 15 5 12 10 -4 6 -3 10 2 9 4 -1 22 -1 38 0 23 1 27 3
15 11 -17 11 -1 13 25 4 10 -4 13 -9 6 -13 -6 -4 5 -8 25 -8 37 -1 36 12 -1
19 -32 5 -24 33 10 35 17 1 24 0 17 -3 -15 -7 -6 -24 13 -24 9 0 12 6 9 15 -4
9 0 15 7 15 11 0 11 3 -1 10 -17 11 -17 11 45 15 51 3 55 5 49 19 -3 8 3 16
15 19 27 7 103 -3 119 -16 7 -5 15 -7 19 -3 10 10 -1 16 -48 25 -39 8 -41 9
-14 11 17 2 38 3 48 2 9 -1 17 3 17 8 0 6 11 10 24 10 14 0 27 4 31 10 4 6 15
6 31 0 37 -14 52 -12 29 6 -18 13 -17 14 14 8 22 -5 32 -3 28 3 -4 6 45 9 141
8 120 -2 131 -1 57 5 l-90 6 102 2 c65 1 104 -2 109 -9z m223 -113 c-265 -155
-398 -440 -399 -856 0 -158 -34 -266 -111 -354 -110 -125 -287 -164 -349 -76
l-21 29 36 32 c24 22 32 36 25 43 -7 7 -20 0 -41 -20 -30 -28 -31 -29 -45 -9
-41 55 -39 157 2 163 11 2 47 -11 79 -28 90 -47 103 -31 42 58 -17 26 -46 51
-73 65 -24 11 -44 23 -44 26 0 4 13 15 30 26 34 23 74 106 65 136 -8 25 -17
24 -52 -5 -47 -39 -93 -58 -145 -60 -42 -1 -53 3 -70 24 -48 59 7 251 107 378
73 91 196 196 356 302 129 85 310 138 544 160 150 14 148 15 64 -34z m1101
-66 c0 -13 7 -20 20 -20 11 0 20 -6 20 -12 0 -9 3 -8 10 2 5 8 12 11 17 7 4
-4 1 -18 -6 -30 -14 -21 -13 -21 10 -5 13 9 23 23 21 32 -2 9 2 16 8 16 5 0
10 -8 10 -17 0 -13 3 -14 12 -5 7 7 16 12 21 12 15 0 -35 -40 -73 -57 -8 -4
-39 -31 -69 -60 -30 -29 -55 -53 -57 -53 -2 0 0 8 3 18 6 15 5 15 -10 3 -9 -7
-17 -10 -17 -7 0 13 23 51 35 58 17 10 7 68 -11 61 -9 -3 -14 1 -14 12 0 9 9
19 20 22 11 3 20 14 20 24 0 11 7 19 15 19 8 0 15 -9 15 -20z m-305 -49 c-3
-5 0 -13 6 -17 8 -4 7 -9 -2 -15 -7 -4 -10 -11 -7 -14 4 -4 17 0 30 9 26 18
42 21 33 6 -4 -7 3 -9 22 -5 16 4 23 3 17 -2 -11 -7 -18 -49 -14 -83 1 -9 5
-7 10 8 9 21 11 21 29 6 11 -9 17 -23 14 -31 -4 -9 0 -11 12 -7 14 6 16 3 10
-14 -4 -13 -2 -22 4 -22 6 0 11 -4 11 -10 0 -17 -28 -11 -39 8 -9 15 -12 15
-21 2 -15 -23 -12 -34 5 -20 9 7 15 8 15 2 0 -13 59 -21 67 -9 4 6 1 7 -8 2
-8 -5 -11 -4 -6 0 4 5 0 17 -10 27 -9 10 -11 18 -6 18 20 0 37 -32 38 -71 1
-33 -1 -36 -14 -26 -12 10 -14 9 -8 -6 4 -10 7 -28 8 -40 0 -21 1 -21 10 2 15
38 21 17 9 -30 -9 -33 -14 -39 -22 -28 -8 11 -9 10 -4 -4 3 -10 7 -35 7 -55 2
-37 2 -37 9 8 5 25 14 64 21 88 11 34 11 47 1 62 -15 25 -15 33 0 28 22 -8 25
-52 6 -107 -21 -63 -23 -109 -7 -196 11 -55 4 -140 -8 -107 -4 10 -8 10 -19 1
-19 -15 -18 -30 2 -22 13 5 14 0 9 -33 -4 -22 -11 -55 -16 -74 -5 -19 -9 -47
-9 -62 0 -21 -4 -26 -16 -21 -14 5 -16 2 -9 -23 4 -16 6 -62 6 -102 -1 -72
-15 -112 -37 -112 -19 0 -29 -151 -13 -195 11 -30 11 -37 0 -45 -8 -4 -11 -15
-8 -24 4 -9 4 -44 0 -76 l-6 -60 -33 0 c-19 0 -34 -4 -34 -9 0 -15 34 -71 43
-71 5 0 6 -4 2 -9 -3 -6 4 -25 15 -43 20 -33 29 -23 11 11 -14 26 1 116 19
117 35 2 40 5 40 19 0 8 5 15 10 15 16 0 11 -21 -9 -38 -21 -18 -29 -65 -17
-93 4 -9 5 -29 2 -45 -2 -16 -5 -39 -5 -51 -1 -13 -5 -23 -11 -23 -5 0 -7 7
-4 15 4 8 1 15 -4 15 -7 0 -5 11 4 28 16 31 18 52 5 52 -5 0 -11 -12 -13 -27
-4 -41 -20 -34 -50 22 -15 28 -34 59 -43 70 -8 11 -13 25 -11 32 3 7 2 13 -3
13 -12 0 -61 113 -61 139 0 15 -4 20 -12 15 -7 -4 -10 -4 -7 0 4 4 -1 23 -11
44 -13 27 -15 42 -8 58 8 17 6 28 -6 45 -20 29 -21 49 -1 49 8 0 15 -3 16 -7
0 -5 2 -28 5 -52 3 -29 0 -48 -8 -54 -10 -6 -9 -8 2 -4 13 3 15 36 18 205 l3
202 -40 0 c-40 0 -40 0 -44 43 -2 23 -3 0 -2 -51 1 -55 -1 -88 -6 -80 -5 7 -9
31 -10 53 -1 22 -4 31 -6 20 -6 -22 -23 -36 -35 -29 -4 3 -8 25 -8 48 0 24 -3
65 -7 92 -6 43 -8 46 -15 24 l-8 -25 4 25 c2 14 7 34 11 45 5 16 5 17 -4 5 -9
-12 -11 -10 -11 13 0 17 4 26 10 22 7 -5 10 9 8 39 -2 29 -8 48 -18 52 -12 5
-11 8 5 14 18 8 17 9 -7 9 -14 1 -28 -5 -31 -11 -3 -10 -8 -10 -21 1 -15 13
-19 13 -26 1 -5 -8 -6 -18 -3 -24 4 -5 9 -1 13 9 5 16 7 16 12 3 6 -15 -8 -38
-23 -38 -4 0 -10 14 -14 31 -5 23 -10 28 -18 20 -13 -13 -28 -15 -26 -3 4 22
-3 32 -21 32 -11 0 -20 -4 -20 -10 0 -5 -6 -10 -14 -10 -18 0 -33 43 -17 48 6
2 11 16 12 30 0 27 0 27 11 4 9 -18 7 -26 -7 -42 -16 -18 -16 -20 -2 -20 10 0
17 7 17 16 0 11 6 14 20 9 22 -7 26 5 8 23 -7 7 -8 12 -3 12 6 0 11 30 11 66
1 38 -2 60 -7 53 -4 -8 -7 -23 -5 -34 2 -11 1 -14 -1 -7 -3 7 -9 9 -15 6 -6
-4 0 12 12 34 13 23 29 42 37 42 7 0 10 6 7 15 -4 8 -1 15 5 15 6 0 11 -7 11
-16 0 -20 32 -15 37 6 4 12 3 13 -5 1 -8 -11 -12 -10 -21 7 -15 28 -14 35 4
29 17 -7 30 9 15 18 -6 4 -8 11 -4 16 3 6 10 6 17 1 7 -5 26 -9 44 -9 27 0 29
2 17 14 -18 18 -18 22 4 46 16 19 16 20 0 14 -10 -4 -18 -2 -18 3 0 14 17 15
65 6 26 -6 27 -5 8 3 -23 10 -32 41 -13 41 6 0 19 9 30 20 11 11 20 17 20 14
0 -3 10 2 22 10 15 11 26 12 40 5 14 -8 20 -6 25 8 4 10 11 21 17 25 16 11 38
10 31 -1z m1037 -112 c55 -35 129 -112 154 -160 39 -77 8 -214 -66 -291 -55
-56 -106 -73 -197 -63 -43 4 -63 3 -63 -4 0 -18 46 -31 108 -31 110 0 198 64
236 170 10 27 21 50 25 50 14 0 136 -82 154 -103 34 -40 77 -141 77 -180 0
-146 -198 -285 -319 -223 -32 17 -87 77 -103 112 -12 25 -38 33 -38 12 0 -22
37 -75 81 -118 39 -38 41 -41 25 -58 -9 -10 -16 -24 -16 -30 0 -27 -19 -9 -35
36 -25 65 -130 167 -220 212 -124 63 -242 43 -323 -56 -38 -46 -86 -144 -107
-220 -26 -92 -31 -313 -10 -475 47 -373 118 -594 223 -690 44 -41 44 -42 109
-36 62 5 63 4 41 -12 -59 -42 -170 -8 -275 85 -72 62 -108 125 -158 272 -99
294 -128 463 -129 757 0 233 11 331 56 484 19 65 20 80 10 130 -21 101 -16
154 23 239 62 133 148 195 270 195 67 0 103 -15 152 -63 48 -47 67 -106 61
-192 -12 -179 -113 -277 -254 -248 -31 7 -58 9 -61 7 -22 -22 86 -52 151 -43
66 10 120 56 158 134 31 62 33 74 33 168 0 96 -1 103 -32 153 -18 29 -33 56
-33 61 0 14 76 50 123 59 56 10 112 -4 169 -40z m-1501 -539 c6 0 7 9 4 20 -6
18 -2 20 43 20 l50 0 -3 -32 c-2 -18 -3 -36 -4 -40 -1 -5 -19 -8 -41 -8 l-40
0 0 -40 0 -40 51 0 c59 0 79 15 73 56 -4 27 -4 27 6 6 5 -12 16 -25 25 -28 20
-8 19 -24 -1 -24 -13 0 -13 -3 4 -17 19 -17 46 -117 60 -223 2 -19 8 -40 13
-46 5 -7 10 -58 10 -115 0 -108 6 -169 18 -169 4 0 5 15 3 34 -2 18 1 36 6 40
16 9 42 -22 42 -50 0 -14 4 -23 9 -20 14 9 32 -75 20 -93 -9 -14 -10 -14 -5 2
3 9 1 17 -4 17 -12 0 -12 -17 -1 -45 7 -18 8 -18 18 -1 15 27 36 10 28 -21 -5
-20 -3 -24 9 -20 17 7 28 -16 19 -40 -3 -10 -3 -15 2 -11 4 4 14 0 21 -10 13
-18 10 -32 -7 -32 -6 0 -7 6 -3 13 5 7 1 7 -10 -2 -10 -8 -27 -15 -38 -16 -11
-1 -23 -7 -28 -14 -5 -10 -13 -10 -27 -3 -11 6 -28 10 -39 8 -10 -2 -13 -1 -6
1 19 7 14 23 -8 23 -22 0 -27 -24 -10 -50 7 -12 12 -12 22 -2 15 15 28 16 28
2 0 -5 -7 -10 -15 -10 -8 0 -15 -5 -15 -11 0 -6 -6 -9 -12 -7 -7 3 -20 -4 -29
-15 -11 -14 -18 -17 -23 -9 -4 7 0 12 10 12 10 0 15 3 11 6 -3 3 -15 3 -26 -1
-17 -5 -19 -10 -10 -26 9 -17 7 -21 -9 -25 -10 -3 -25 -15 -33 -26 -20 -29
-52 -65 -44 -50 3 6 0 19 -8 27 -13 12 -15 11 -14 -13 1 -15 6 -30 12 -34 10
-8 -30 -13 -70 -10 -16 2 -17 0 -6 -7 12 -8 13 -14 3 -36 -7 -15 -10 -36 -6
-47 4 -15 3 -18 -7 -13 -9 6 -11 3 -6 -8 5 -12 1 -17 -12 -17 -10 0 -21 -9
-24 -20 -3 -11 -1 -20 5 -20 6 0 -5 -17 -23 -37 -18 -21 -40 -38 -48 -38 -8 0
-25 -15 -37 -33 -14 -20 -24 -27 -27 -20 -3 9 -11 6 -27 -10 -12 -13 -28 -21
-35 -18 -8 3 -11 -2 -8 -15 6 -22 23 -26 23 -5 0 15 56 33 67 22 4 -3 -3 -6
-14 -6 -11 0 -30 -11 -43 -25 -12 -13 -27 -22 -31 -19 -5 3 -4 -7 1 -21 6 -16
6 -24 0 -20 -5 3 -14 -3 -19 -14 -10 -18 -123 -101 -138 -101 -5 0 5 11 21 25
19 16 24 25 14 25 -8 0 -23 -9 -33 -20 -10 -11 -23 -20 -28 -20 -6 0 -3 8 6
18 14 16 14 17 -9 17 -15 0 -22 -5 -19 -12 2 -8 -4 -13 -15 -13 -23 0 -35 16
-18 23 7 3 -11 6 -39 6 l-53 1 0 -36 c0 -25 7 -42 23 -56 20 -18 20 -19 2 -13
-45 16 -55 16 -75 2 -12 -8 -30 -12 -41 -10 -25 7 -69 -15 -69 -34 0 -21 -20
-24 -75 -13 -28 6 -58 11 -67 11 -22 0 -23 27 -3 53 19 25 33 12 17 -14 -16
-26 5 -28 25 -2 13 15 14 15 8 -10 -3 -16 -1 -28 5 -28 5 0 10 16 10 36 0 19
-3 33 -7 31 -5 -3 -13 1 -20 8 -10 11 -7 17 12 29 13 9 28 16 33 16 5 0 17 8
26 19 14 15 30 18 99 17 l82 -2 0 38 c0 33 -2 37 -22 32 -12 -3 -28 -2 -34 2
-7 4 -27 9 -43 11 -42 5 -50 16 -20 30 19 9 24 8 24 -3 0 -8 5 -14 10 -14 13
0 13 6 -2 31 -10 17 -10 23 0 26 6 3 12 9 12 15 0 6 -6 6 -15 -2 -8 -7 -15 -8
-15 -2 0 5 7 15 16 22 13 11 16 10 21 -8 4 -18 13 -22 43 -22 l39 0 3 85 c2
47 -1 85 -6 85 -4 0 -21 11 -38 25 -40 34 -26 31 35 -6 27 -16 55 -28 62 -25
18 7 27 75 15 116 -12 43 -12 43 0 35 6 -3 10 -2 10 4 0 5 -4 13 -10 16 -14 9
-25 -45 -12 -65 14 -24 3 -100 -15 -100 -11 0 -11 4 -2 21 23 43 -19 187 -68
238 -22 23 -31 40 -27 53 3 12 0 18 -10 18 -9 0 -16 5 -16 11 0 6 6 9 14 6 16
-6 66 13 66 26 0 4 -7 7 -15 7 -8 0 -15 -4 -15 -10 0 -5 -10 -10 -22 -10 -22
1 -22 1 -3 12 11 7 26 18 34 26 10 10 16 11 21 2 6 -9 18 -7 46 6 29 14 34 20
20 22 -10 2 -23 -1 -29 -7 -17 -17 -31 -13 -17 4 7 8 18 15 26 15 19 0 36 36
32 67 -3 25 -4 26 -20 10 -9 -9 -24 -17 -33 -17 -8 0 -18 -7 -22 -15 -7 -20
-127 -102 -121 -84 3 8 13 19 24 24 61 33 66 37 54 45 -9 5 -9 9 -1 14 6 4 11
2 11 -3 0 -6 5 -11 12 -11 8 0 7 5 -3 15 -18 18 -53 9 -45 -10 3 -8 -12 -24
-34 -39 -32 -21 -39 -23 -44 -10 -3 8 -9 13 -14 11 -4 -3 -16 2 -27 10 -19 15
-19 15 4 8 18 -6 22 -4 16 6 -5 8 0 6 11 -3 20 -17 69 -15 58 3 -3 5 0 9 6 9
6 0 9 4 6 8 -3 5 6 15 20 22 27 15 45 61 26 68 -7 2 -12 10 -12 19 0 8 -6 13
-12 10 -7 -2 -12 -8 -11 -13 1 -5 -17 -10 -40 -10 -23 -1 -31 0 -17 3 14 3 32
11 41 19 9 9 29 14 45 12 21 -2 29 2 33 18 3 12 22 41 41 64 49 59 53 69 40
86 -16 19 -26 18 -50 -6 -11 -11 -20 -15 -20 -9 0 6 -7 9 -15 5 -10 -3 -15 1
-15 13 0 11 -3 27 -7 37 -4 12 -3 15 5 10 7 -4 12 -17 13 -29 1 -20 2 -20 8 3
4 14 3 28 -1 31 -5 3 -3 19 5 35 8 16 23 46 32 67 23 47 31 41 11 -8 -16 -37
-13 -61 5 -50 5 4 9 22 9 41 0 33 13 46 23 22 3 -8 6 -6 6 5 1 9 -3 17 -9 17
-20 0 -10 35 20 70 24 29 30 31 36 17 5 -13 19 -17 61 -17 l55 0 -4 43 c-3 23
-8 51 -13 61 -6 13 -5 17 2 13 6 -4 22 2 37 14 14 11 33 22 43 24 10 2 33 11
51 20 21 11 45 15 62 11 18 -3 30 -1 33 7 2 7 3 -1 1 -17 -2 -16 -4 -80 -4
-144 0 -63 -2 -113 -5 -110 -3 2 -6 58 -7 124 -2 143 -16 116 -17 -33 -1 -85
2 -103 14 -103 8 0 15 -4 15 -10 0 -5 -6 -7 -14 -4 -30 11 -39 -35 -33 -160 3
-67 9 -130 13 -140 5 -14 4 -17 -4 -12 -7 4 -12 2 -12 -3 0 -6 9 -11 19 -11
21 0 37 -17 27 -27 -3 -3 -12 0 -21 7 -8 7 -15 10 -15 7 0 -3 -3 -12 -6 -20
-4 -11 2 -14 28 -12 18 1 33 6 33 11 0 5 3 14 7 20 9 13 7 125 -1 119 -3 -1
-6 7 -7 18 0 12 -4 42 -8 67 -5 25 -5 42 -2 39 4 -3 10 -26 15 -50 8 -41 9
-41 10 -11 1 18 5 31 9 28 14 -8 44 34 34 47 -6 7 -6 35 -1 67 10 71 9 279 -1
230 -7 -35 -7 -35 -8 10 -1 56 15 152 17 104 2 -63 14 -124 23 -124 6 0 7 11
3 28 -5 15 -9 47 -11 72 -1 25 -4 65 -7 90 -2 25 -2 33 0 18 2 -16 9 -28 14
-28z m-2411 -238 c-15 -146 -39 -233 -100 -359 -46 -95 -160 -253 -181 -253
-11 0 -69 29 -69 34 0 2 7 20 15 39 20 48 20 196 1 242 -8 19 -27 40 -42 47
-22 10 -32 9 -65 -9 -44 -24 -45 -22 -23 53 12 43 22 58 47 71 18 9 98 80 178
159 81 78 166 156 190 174 l44 32 9 -59 c5 -36 4 -100 -4 -171z m-656 85 c19
-53 44 -113 56 -132 17 -27 23 -57 27 -129 8 -123 0 -144 -30 -85 -19 39 -27
44 -59 47 -31 3 -40 -2 -63 -32 -31 -40 -49 -96 -59 -178 -8 -60 -22 -73 -46
-43 -10 12 -12 51 -7 163 10 216 45 364 110 459 12 18 25 32 30 30 4 -1 23
-46 41 -100z m-778 37 c9 3 33 3 55 0 38 -6 39 -8 41 -48 l1 -41 4 43 c4 39 6
42 34 42 27 0 29 -2 30 -42 1 -24 4 -33 6 -20 4 21 9 22 99 22 95 0 126 -14
57 -25 -54 -9 -65 -16 -18 -10 22 2 66 7 97 11 32 4 55 11 52 15 -3 5 1 9 9 9
24 0 29 -28 6 -35 -19 -6 -27 -35 -10 -35 14 0 20 -70 11 -125 l-9 -50 3 63
c2 67 -10 86 -17 25 -2 -21 -3 -10 0 25 3 52 1 62 -13 62 -14 0 -15 -7 -10
-45 3 -25 9 -65 12 -90 4 -25 10 -45 15 -45 5 0 9 -17 8 -37 -1 -34 -2 -35 -9
-13 l-8 25 -1 -28 c-1 -16 4 -37 9 -48 8 -13 8 -24 0 -37 -9 -15 -10 -14 -5 6
4 13 2 22 -4 22 -6 0 -11 -6 -11 -12 0 -7 -9 1 -19 18 -26 42 -34 46 -105 54
l-61 7 72 2 c49 1 73 -3 76 -11 2 -7 8 -9 13 -5 19 18 -27 27 -128 25 -59 -2
-99 -6 -90 -10 9 -4 27 -7 40 -7 12 -1 22 -6 22 -12 0 -8 -14 -10 -40 -6 -28
3 -40 1 -40 -7 0 -14 43 -12 102 6 31 9 44 8 76 -6 21 -9 44 -27 51 -38 12
-20 11 -20 -26 3 -32 20 -50 23 -107 22 -38 -1 -74 -7 -80 -13 -5 -5 -21 -10
-36 -10 -19 0 -22 -2 -10 -10 12 -8 12 -10 -3 -16 -9 -3 -17 -11 -17 -16 0 -6
7 -8 15 -4 23 8 18 -4 -12 -30 -32 -27 -32 -27 -53 -14 -12 8 -12 10 -1 10 8
0 11 7 8 20 -3 11 -1 23 4 26 5 3 9 12 9 21 0 14 -3 14 -20 -2 -14 -12 -18
-25 -14 -38 6 -19 4 -19 -24 4 -37 29 -39 36 -9 42 12 2 6 3 -13 1 -27 -2 -43
4 -70 27 -19 16 -29 29 -22 29 7 0 24 -11 38 -25 14 -14 26 -25 28 -25 2 0 1
11 -2 25 -2 14 0 25 6 25 6 0 13 -10 15 -22 2 -13 4 -6 4 14 0 36 -1 36 -23
21 -17 -11 -28 -12 -43 -4 -11 6 -26 9 -33 6 -9 -4 -13 4 -13 26 0 18 -6 34
-13 37 -11 3 -11 1 -1 -16 7 -12 11 -24 7 -27 -6 -7 -78 55 -78 67 0 16 17 8
26 -13 9 -18 10 -16 11 17 0 28 -2 33 -7 19 -7 -19 -8 -18 -11 4 -2 14 -10 26
-18 29 -9 3 -11 -2 -6 -17 4 -12 2 -21 -4 -21 -6 0 -11 4 -11 8 0 4 -18 27
-40 51 -22 23 -40 49 -40 57 0 22 7 17 30 -23 18 -34 26 -38 60 -38 21 -1 36
3 34 7 -3 4 -21 8 -39 8 -33 0 -34 1 -32 38 2 31 -1 37 -18 38 -60 3 -60 3
-59 37 1 17 2 37 3 42 1 6 44 10 112 10 61 -1 112 2 115 6 2 5 18 3 34 -3 17
-5 37 -7 46 -4z m-478 -3 c6 -1 12 -9 13 -18 0 -14 2 -13 9 4 6 13 17 21 29
20 21 -1 31 -27 11 -27 -5 0 -10 5 -10 10 0 6 -5 10 -11 10 -5 0 -7 -4 -4 -10
3 -5 -1 -20 -9 -32 -9 -12 -16 -27 -16 -33 0 -5 5 -3 10 5 9 13 11 13 19 0 6
-8 14 -11 18 -6 4 5 2 11 -4 13 -14 5 -18 33 -5 33 4 0 13 -9 20 -20 7 -11 19
-20 27 -20 8 0 15 -5 15 -11 0 -5 -3 -8 -7 -6 -5 3 -9 -6 -9 -19 -1 -15 3 -23
10 -21 6 3 10 10 9 16 -4 17 8 13 23 -6 19 -25 17 -38 -3 -22 -14 12 -16 12
-11 -1 2 -8 13 -16 24 -18 28 -5 124 -139 107 -150 -6 -4 -7 -15 -2 -27 7 -19
8 -19 8 3 1 28 6 28 39 -4 25 -24 26 -26 5 -19 -13 4 -23 2 -23 -4 0 -17 19
-22 41 -10 19 10 21 9 17 -9 -4 -15 -1 -18 13 -15 15 4 18 1 13 -11 -11 -28 4
-64 28 -68 24 -3 50 -59 30 -66 -7 -2 -12 -8 -12 -14 0 -6 8 -4 18 5 37 34
103 7 82 -33 -14 -27 -12 -34 6 -19 10 8 14 23 12 41 -3 18 0 27 6 25 6 -2 12
-10 12 -18 1 -8 2 -20 3 -26 0 -7 8 -13 16 -13 9 0 15 -9 15 -22 -1 -22 -1
-22 -15 -4 -14 18 -15 18 -45 -8 -26 -21 -28 -26 -13 -26 11 0 24 5 31 12 9 9
15 9 24 0 8 -8 1 -13 -31 -18 -29 -5 -38 -10 -29 -15 10 -7 9 -9 -4 -9 -10 0
-18 7 -18 16 0 12 -6 15 -26 10 -17 -5 -23 -3 -19 4 3 5 -3 10 -14 10 -11 0
-23 5 -26 10 -3 6 -1 10 5 10 6 0 8 5 5 10 -3 6 -13 10 -21 10 -8 0 -12 -4 -9
-10 3 -5 -1 -10 -9 -10 -8 0 -18 5 -21 10 -3 6 -1 10 6 10 7 0 9 3 6 7 -4 3
-2 12 4 20 9 10 8 13 -4 13 -9 0 -21 -9 -27 -20 -6 -11 -15 -20 -21 -20 -6 0
-3 7 5 16 22 21 21 21 -21 20 -43 -1 -111 27 -120 49 -3 8 -13 15 -22 16 -9 0
-11 3 -4 6 7 2 28 -8 48 -23 20 -15 39 -23 43 -19 4 4 3 9 -3 12 -24 9 -39 23
-32 30 4 4 17 2 27 -5 12 -7 20 -8 20 -2 0 12 -5 13 -80 16 -30 1 -62 2 -71 3
-12 1 -15 9 -13 31 3 26 -1 32 -24 41 -19 8 -32 7 -46 -1 -14 -9 -16 -9 -10 1
5 9 2 10 -9 6 -11 -4 -17 -1 -17 8 0 8 5 15 11 15 8 0 8 5 -1 15 -7 8 -10 22
-6 30 7 19 -8 20 -23 2 -8 -10 -7 -17 1 -25 6 -6 8 -15 4 -19 -4 -5 -13 0 -20
9 -7 10 -17 14 -21 10 -4 -4 -2 4 5 18 12 23 12 24 -3 11 -15 -12 -22 -9 -56
22 -27 24 -36 39 -30 48 5 8 8 32 7 54 l-1 40 -4 -40 c-6 -54 -20 -59 -54 -20
-31 35 -36 51 -16 58 6 2 -1 2 -18 1 -16 -2 -24 -1 -17 2 16 8 15 27 -2 21
-16 -6 -46 26 -46 50 0 9 -3 13 -7 10 -7 -7 -32 22 -32 38 0 6 4 2 10 -7 8
-15 13 -16 30 -5 16 9 21 9 27 0 5 -7 36 -16 70 -19 l62 -7 0 41 c0 51 2 52
148 43z m5619 -48 c108 -53 197 -156 217 -248 5 -22 -1 -50 -22 -100 -80 -194
-124 -418 -142 -713 -15 -245 -24 -278 -81 -317 -97 -64 -162 -37 -228 95 -66
133 -106 291 -141 568 -24 184 -25 280 -5 397 40 230 160 377 295 359 19 -3
67 -21 107 -41z m-6083 -14 c-1 -12 6 -16 30 -14 50 4 55 -1 50 -61 -3 -50 -2
-54 21 -60 17 -4 25 -13 25 -28 0 -19 2 -18 19 7 10 16 21 24 25 19 3 -6 0
-13 -6 -15 -8 -4 -5 -8 8 -12 16 -5 19 -13 16 -36 -3 -23 -1 -29 14 -29 14 0
15 3 6 12 -7 7 -12 17 -12 23 1 5 10 -1 20 -14 11 -13 20 -19 20 -15 0 19 84
-82 85 -101 0 -11 10 -31 23 -45 12 -13 22 -27 22 -32 0 -4 -10 -9 -22 -9 -21
-2 -22 -2 -2 -6 11 -2 33 1 49 7 l28 11 -32 17 c-18 10 -32 21 -31 26 1 4 -7
14 -17 22 -16 12 -17 13 -1 14 10 0 22 -9 28 -20 6 -11 15 -20 20 -20 6 0 35
-19 65 -42 54 -42 72 -78 38 -78 -13 0 -14 -3 -5 -12 9 -9 15 -8 26 7 8 11 12
24 9 28 -3 5 7 2 22 -6 27 -14 46 -67 24 -67 -5 0 -9 -8 -9 -17 0 -13 3 -14
11 -6 12 12 59 -3 59 -19 0 -4 6 -7 13 -5 6 1 12 -5 12 -13 0 -8 9 -19 20 -24
12 -5 15 -10 8 -13 -7 -2 -21 1 -33 7 -11 6 -25 8 -30 5 -6 -4 -27 -1 -46 5
-27 9 -33 15 -23 21 10 6 3 9 -21 9 -26 0 -31 -3 -20 -10 20 -13 3 -13 -60 1
-50 11 -50 11 -50 49 l0 39 -132 -4 c-72 -3 -136 -9 -140 -13 -5 -5 36 -7 91
-4 68 3 101 1 101 -6 0 -7 -40 -11 -111 -11 -60 -1 -121 -4 -135 -7 -18 -5
-24 -2 -24 10 0 9 5 16 10 16 6 0 10 -4 10 -10 0 -5 8 -6 17 -3 12 5 13 8 4
11 -10 3 -11 6 -1 12 7 4 -8 7 -34 6 -25 0 -46 -2 -46 -4 0 -2 7 -10 15 -19 9
-8 14 -17 12 -19 -7 -8 -102 91 -99 104 2 9 -4 11 -20 7 -14 -4 -31 1 -43 10
-20 16 -20 16 2 6 35 -17 43 -13 43 24 0 28 -4 35 -20 35 -11 0 -20 5 -20 10
0 6 -9 10 -20 10 -17 0 -20 -7 -20 -40 0 -35 -3 -40 -22 -40 -39 -1 -58 -23
-58 -69 0 -40 -1 -41 -32 -41 -22 0 -29 3 -20 9 17 11 -34 22 -92 19 -38 -1
-37 -2 14 -8 l55 -7 -67 -1 c-45 -1 -68 2 -71 11 -4 9 -8 9 -14 1 -12 -16 -50
-26 -57 -15 -4 6 -20 4 -43 -5 -25 -11 -39 -12 -46 -5 -14 14 -47 14 -47 1 0
-5 -15 -10 -32 -10 -22 0 -29 3 -20 9 11 7 10 10 -3 15 -25 9 -43 7 -26 -3 25
-16 0 -31 -52 -31 -45 0 -49 1 -32 14 17 12 14 14 -31 25 -52 12 -210 11 -190
-1 6 -4 -15 -8 -46 -8 -51 0 -58 -2 -58 -20 0 -18 7 -20 68 -21 89 0 49 -18
-49 -21 -39 -1 -69 -7 -70 -13 0 -5 -4 -1 -9 10 -4 11 -4 24 1 29 15 16 10 54
-8 65 -10 6 -15 11 -10 11 4 0 16 -5 26 -12 22 -14 51 3 51 30 0 13 -3 12 -20
-3 -29 -26 -36 -11 -11 21 11 15 21 21 21 15 0 -7 4 -10 9 -7 4 3 7 24 5 46
-3 37 9 56 19 28 2 -8 3 -7 3 2 -1 8 -10 15 -21 15 -17 0 -20 -6 -17 -35 l2
-35 -15 28 c-9 15 -13 32 -10 37 3 5 -11 7 -35 4 -37 -4 -40 -3 -40 19 0 22
26 41 51 38 4 0 12 20 19 44 10 36 10 48 0 60 -11 13 -8 15 21 12 30 -2 35 -6
40 -37 l6 -35 2 33 c0 18 6 32 14 32 6 0 4 5 -5 11 -32 18 -19 26 70 38 48 7
125 19 172 28 46 8 99 13 117 10 21 -4 32 -2 30 6 -1 6 7 12 18 14 16 3 17 2
5 -6 -13 -9 -12 -11 5 -11 11 -1 52 -3 90 -5 63 -3 66 -3 25 6 -25 5 -54 6
-65 3 -17 -4 -18 -4 -3 6 19 12 128 2 128 -11 0 -5 7 -9 16 -9 10 0 14 6 11
14 -4 10 5 12 41 8 26 -3 49 -9 50 -13 10 -25 82 3 82 31 0 7 -8 19 -17 26
-16 12 -12 14 32 15 108 4 239 19 250 30 16 16 60 6 59 -12z m3488 -438 c13
-13 19 -27 15 -40 -5 -20 -1 -21 58 -21 35 0 75 5 88 11 25 11 39 4 98 -53 10
-10 26 -15 36 -12 17 5 17 5 0 -6 -14 -9 -25 -6 -58 21 -22 17 -43 28 -47 25
-3 -4 0 -11 8 -17 13 -8 13 -10 0 -19 -13 -9 -13 -11 0 -20 8 -5 22 -9 30 -9
11 1 10 3 -2 6 -10 2 -18 9 -18 14 0 14 27 11 43 -5 15 -16 67 -17 67 -1 1 6
8 1 18 -11 10 -11 23 -19 29 -17 8 3 11 -8 10 -29 -2 -26 1 -32 16 -30 9 2 17
-2 17 -8 0 -13 37 -50 51 -50 5 0 7 5 3 11 -3 6 8 3 25 -5 17 -9 31 -18 31
-19 0 -9 -77 1 -83 11 -4 6 -13 12 -19 12 -6 0 -17 8 -24 17 -7 10 -16 15 -20
11 -4 -4 -2 -14 5 -21 6 -8 9 -22 5 -31 -3 -9 -1 -16 5 -16 6 0 10 5 9 11 -2
6 3 14 10 16 6 3 12 -2 12 -11 0 -9 5 -16 10 -16 6 0 10 -6 10 -14 0 -8 10
-18 21 -21 17 -6 19 -9 8 -16 -9 -7 -5 -7 14 -3 20 5 27 2 27 -9 0 -16 -41
-34 -83 -36 -15 0 -37 -5 -47 -11 -21 -11 -300 -14 -300 -2 0 4 35 7 78 8 42
0 90 4 106 8 18 4 25 3 21 -4 -8 -13 50 -13 75 0 11 6 39 11 64 12 24 1 42 6
39 10 -2 5 -19 6 -36 3 -18 -3 -43 -7 -57 -9 -14 -1 -32 -6 -39 -10 -7 -5 -16
-5 -20 0 -3 5 -49 8 -101 8 -163 -2 -160 -2 -160 -24 0 -18 7 -20 63 -21 l62
-2 -64 -8 c-35 -4 -68 -6 -73 -3 -4 3 -8 0 -8 -5 0 -6 -13 -11 -29 -11 -25 0
-61 -11 -183 -59 -16 -6 -28 -7 -28 -3 0 4 30 19 68 34 64 25 65 27 31 27 -21
1 -39 -4 -42 -12 -7 -18 -57 -20 -57 -2 0 11 -11 15 -40 15 l-40 0 -1 -42 c-1
-24 -1 -49 0 -56 2 -10 -4 -12 -19 -7 -11 4 -27 1 -35 -5 -15 -12 -55 2 -55
20 0 6 -11 10 -25 10 -33 0 -33 -37 -1 -64 l24 -20 -52 -27 c-31 -17 -67 -28
-91 -28 -29 -1 -36 2 -25 9 10 6 -28 9 -115 8 l-130 -2 107 -5 c58 -3 109 -8
112 -11 4 -5 -73 -5 -249 1 -51 1 -55 3 -30 10 26 7 24 8 -15 6 -36 -2 -46 1
-46 14 0 13 9 14 64 6 35 -4 74 -6 86 -4 11 2 2 5 -21 6 -24 0 -43 5 -43 9 0
4 -16 6 -35 4 -46 -5 -61 8 -75 71 -7 29 -17 58 -23 65 -5 7 -7 15 -4 19 4 3
9 -2 13 -11 3 -9 10 -16 15 -16 4 0 6 7 3 15 -4 8 -1 15 5 15 6 0 11 -7 11
-15 0 -8 9 -15 19 -15 22 0 40 -19 19 -21 -18 -1 32 -17 57 -18 16 -1 17 1 5
9 -19 12 34 12 100 1 l45 -8 -37 -2 c-37 -1 -38 -2 -38 -41 0 -37 -2 -40 -27
-41 -26 -1 -25 -2 7 -9 51 -13 330 -20 330 -9 0 5 -16 9 -35 9 l-35 0 -1 63
c-1 34 -3 54 -6 45 -2 -10 -9 -18 -14 -18 -6 0 -7 5 -4 10 3 6 2 10 -4 10 -5
0 -11 -6 -14 -12 -2 -7 -8 -10 -12 -6 -5 5 -1 16 7 25 8 10 18 26 21 36 4 10
11 15 17 12 6 -4 10 16 10 54 0 56 -10 76 -25 51 -3 -5 -20 -10 -36 -10 -18 0
-28 -4 -24 -10 8 -12 -5 -13 -24 -1 -16 10 -7 16 39 26 61 12 72 17 63 26 -5
5 -35 -1 -73 -16 -35 -14 -65 -23 -68 -21 -5 5 82 46 98 46 6 0 25 8 43 17 18
9 36 16 42 14 27 -8 73 -10 98 -5 34 7 39 44 6 44 -18 0 -19 -2 -9 -15 10 -13
9 -15 -12 -15 -13 0 -30 6 -37 13 -10 10 -11 9 -6 -5 4 -11 2 -18 -5 -18 -17
0 -8 33 10 36 21 3 87 33 75 34 -5 0 0 6 12 13 12 6 42 24 68 39 25 15 52 25
60 22 7 -3 16 3 19 13 3 10 23 29 43 43 21 13 56 39 78 56 40 31 65 35 65 9 0
-8 -8 -19 -17 -24 -16 -9 -15 -10 5 -11 27 0 39 26 24 51 -22 35 -12 39 20 10z
m-3589 -69 c53 -36 92 -88 136 -184 42 -92 96 -256 87 -265 -3 -3 -20 5 -38
19 -76 57 -158 85 -158 53 0 -8 49 -64 109 -125 88 -89 110 -116 113 -144 l4
-34 -71 58 c-81 66 -220 157 -283 185 -39 17 -43 22 -38 44 3 14 13 55 21 91
8 36 17 121 21 190 3 69 8 131 10 138 5 17 38 8 87 -26z m1692 -77 c28 -14 71
-38 96 -54 44 -30 45 -30 89 -15 32 12 66 15 119 11 110 -8 183 -48 292 -159
48 -48 93 -88 100 -88 10 -1 10 -3 -2 -10 -8 -5 -71 -14 -139 -20 -123 -10
-139 -14 -127 -27 8 -7 245 14 303 27 21 5 56 10 77 10 31 0 40 -5 57 -32 23
-38 34 -97 25 -138 -6 -25 -11 -30 -37 -30 -39 0 -241 45 -313 70 -39 13 -55
16 -53 7 6 -17 121 -53 255 -80 62 -13 115 -26 119 -30 20 -20 -113 -161 -224
-238 l-74 -52 -112 5 c-69 3 -142 14 -193 28 -85 23 -244 97 -250 116 -2 5 20
14 49 20 28 5 54 15 56 23 4 11 -7 12 -64 5 -167 -22 -286 0 -354 65 -32 31
-40 45 -40 74 0 61 58 108 163 131 35 8 30 31 -7 32 -33 1 -29 -3 -60 71 -33
79 -33 85 4 81 42 -4 38 15 -4 25 -32 8 -36 13 -36 40 0 54 10 60 64 37 66
-30 82 -19 19 14 -29 14 -53 31 -53 36 0 16 39 50 73 66 42 19 115 10 182 -21z
m-1245 -30 c47 -8 114 -20 150 -26 60 -10 105 -19 275 -54 114 -24 286 -65
295 -70 5 -3 19 -25 31 -50 12 -24 48 -79 81 -122 35 -47 56 -84 52 -93 -26
-67 -11 -126 45 -168 64 -49 130 -72 207 -72 29 0 55 -4 58 -9 3 -5 41 -30 84
-55 189 -111 388 -147 613 -111 94 15 117 21 281 68 47 14 125 29 172 33 l85
7 83 -84 c46 -47 95 -93 110 -104 l27 -20 -40 -95 c-50 -117 -99 -264 -133
-395 -24 -92 -54 -182 -119 -355 -111 -295 -391 -832 -539 -1035 -56 -76 -163
-195 -177 -195 -29 0 -111 183 -111 248 0 57 -44 174 -81 215 -36 41 -38 42
-100 41 -73 0 -121 -21 -210 -90 -170 -134 -213 -370 -91 -505 23 -26 42 -52
42 -57 0 -16 -96 -89 -155 -117 -55 -27 -133 -48 -220 -59 -47 -7 -143 5 -420
49 -49 8 -110 14 -135 15 -83 0 -184 -42 -256 -107 -163 -148 -258 -218 -315
-233 -31 -9 -45 -6 -93 15 -31 14 -63 25 -70 25 -8 0 -25 21 -38 47 -18 38
-24 68 -26 138 l-3 90 77 55 c97 69 271 236 349 334 33 41 64 75 68 75 4 1 38
-46 75 -104 37 -57 73 -104 80 -105 18 0 14 21 -8 50 -11 14 -20 28 -20 32 0
5 -22 39 -50 78 -49 69 -59 90 -41 90 4 0 60 -12 122 -26 63 -14 170 -32 239
-40 307 -36 543 48 770 276 95 95 126 131 179 214 116 177 166 354 186 661 16
232 -62 429 -219 554 -74 59 -126 83 -219 101 -82 17 -156 5 -256 -42 -84 -38
-171 -64 -293 -87 -110 -21 -106 -22 -133 54 -27 73 -135 299 -182 380 -52 89
-146 221 -197 275 -32 34 -43 58 -63 133 -36 139 -86 279 -108 307 -7 8 -15
24 -19 34 -6 18 -2 19 106 12 62 -4 151 -13 198 -21z m5144 -237 c15 -68 37
-145 47 -172 10 -28 16 -52 13 -55 -6 -6 -104 95 -129 133 -20 30 0 89 27 80
22 -7 23 9 3 66 -18 52 -19 70 -2 70 8 0 23 -45 41 -122z m-178 5 c26 -43 83
-119 126 -170 l77 -92 -15 -53 c-39 -131 -143 -288 -274 -411 -160 -151 -349
-251 -590 -312 -226 -57 -534 -61 -795 -9 -44 9 -82 18 -84 20 -2 2 18 49 44
104 l48 100 98 0 c104 0 220 25 352 74 126 48 192 87 305 181 38 31 161 187
237 300 98 146 155 209 234 262 49 32 151 80 177 82 6 1 33 -34 60 -76z
m-1351 -124 c5 -5 17 -9 27 -9 11 0 18 -7 18 -20 0 -14 7 -20 23 -20 18 0 19
2 7 11 -12 9 -12 10 3 5 10 -3 24 -6 30 -6 7 0 -1 -7 -17 -15 -16 -9 -36 -13
-43 -11 -7 3 -13 2 -13 -3 0 -5 25 -12 56 -16 43 -5 59 -3 65 7 7 10 9 10 9 1
0 -7 7 -13 16 -13 13 0 15 -9 12 -45 -2 -32 1 -45 10 -45 9 0 11 7 7 20 -3 11
-3 20 2 20 16 -1 40 -25 36 -37 -2 -6 1 -14 6 -18 14 -8 14 -55 1 -55 -5 0
-10 8 -10 18 0 21 -17 49 -25 41 -3 -4 -1 -18 4 -33 7 -17 7 -26 1 -26 -6 0
-10 9 -10 20 0 11 -7 20 -16 20 -8 0 -12 5 -9 10 3 6 -1 10 -10 10 -23 0 -55
-19 -55 -32 0 -9 3 -9 12 0 14 14 32 16 23 2 -3 -5 -23 -17 -43 -27 -20 -9
-40 -21 -43 -26 -3 -5 -13 -2 -21 6 -13 14 -15 12 -15 -16 -1 -25 1 -28 6 -12
8 19 8 19 20 -3 14 -27 -2 -55 -34 -60 -37 -6 -45 -11 -44 -34 l0 -23 11 23
c10 20 28 31 28 16 0 -5 -19 -45 -25 -52 -2 -2 -13 1 -24 8 -25 13 -27 7 -5
-14 8 -9 12 -21 8 -27 -4 -8 -9 -7 -15 2 -7 11 -9 10 -9 -4 0 -24 -40 -107
-51 -107 -5 0 -2 14 7 31 11 23 13 34 5 42 -8 8 -11 5 -11 -11 0 -26 -16 -29
-24 -4 -7 22 1 -45 9 -78 6 -20 5 -22 -5 -10 -10 13 -11 11 -7 -7 6 -26 -36
-82 -47 -64 -4 6 -2 11 5 11 7 0 10 3 6 6 -8 8 -47 -6 -47 -17 0 -6 4 -8 9 -5
13 8 34 -21 26 -35 -6 -8 -10 -8 -16 2 -4 7 -11 11 -14 8 -8 -9 6 -40 15 -34
5 3 6 -4 3 -15 -8 -29 -20 -33 -19 -7 1 19 -5 22 -41 25 l-43 3 1 -38 c0 -41
17 -94 18 -60 1 9 5 17 10 17 10 0 -6 -68 -20 -86 -4 -5 -6 -19 -3 -30 6 -22
-34 -105 -53 -112 -9 -2 -13 9 -14 35 -1 32 -3 29 -11 -21 -7 -43 -6 -62 3
-70 9 -8 10 -5 5 17 -4 16 -2 27 4 27 14 0 12 -40 -6 -75 -8 -16 -12 -22 -9
-12 5 17 4 17 -25 0 -17 -9 -30 -23 -30 -31 0 -7 -7 -27 -16 -44 -11 -22 -13
-33 -5 -41 8 -8 11 -3 11 18 0 19 3 26 10 19 6 -6 5 -23 -2 -47 -8 -27 -14
-34 -21 -25 -5 9 -7 4 -3 -14 4 -15 1 -32 -6 -40 -18 -20 -38 -50 -44 -70 -4
-10 -12 -14 -21 -11 -12 5 -13 2 -5 -13 9 -17 7 -20 -9 -21 -24 -2 -60 -43
-54 -60 2 -7 0 -13 -5 -13 -16 0 -11 47 7 65 16 16 15 17 -3 13 -16 -3 -19
-12 -19 -65 -1 -34 2 -60 5 -58 3 2 14 24 25 49 11 25 24 46 28 46 11 0 -2
-41 -19 -61 -8 -8 -14 -20 -14 -26 0 -6 -7 -16 -15 -23 -8 -7 -12 -17 -8 -23
3 -6 1 -7 -5 -3 -7 4 -12 2 -12 -4 0 -7 -6 -10 -14 -7 -16 6 -29 -15 -31 -49
-1 -16 3 -20 15 -16 13 5 13 3 1 -11 -7 -9 -18 -14 -23 -11 -6 4 -7 -2 -3 -17
4 -13 4 -21 0 -17 -5 4 -20 -16 -34 -45 -26 -51 -61 -96 -61 -77 0 15 -26 12
-40 -4 -6 -8 -10 -25 -8 -38 4 -22 5 -22 16 5 7 16 16 25 22 22 10 -6 -1 -32
-30 -67 -16 -20 -40 -24 -40 -7 0 5 5 7 10 4 6 -3 10 -1 10 4 0 6 -4 11 -9 11
-13 0 -1 52 17 73 18 20 7 23 -14 3 -8 -8 -14 -26 -14 -40 0 -24 -4 -26 -41
-26 l-41 0 4 -59 c2 -36 10 -65 21 -75 14 -14 14 -46 0 -46 -3 0 -3 6 0 13 3
8 0 14 -7 14 -8 0 -11 -12 -8 -31 l3 -31 -13 25 c-10 18 -23 26 -48 27 l-35 3
38 -16 c36 -16 47 -36 27 -49 -6 -4 -8 -11 -5 -16 4 -5 1 -9 -4 -9 -6 0 -11
-8 -11 -17 0 -14 -2 -15 -9 -4 -9 14 -31 7 -31 -10 0 -6 5 -7 10 -4 6 3 10 0
10 -9 0 -8 -12 -19 -27 -25 -21 -9 -22 -10 -5 -7 22 4 22 4 -5 -29 -16 -19
-32 -34 -38 -34 -5 -1 -4 4 3 11 17 17 16 44 -1 29 -8 -6 -17 -7 -21 -3 -4 4
-5 -5 -1 -20 6 -24 4 -27 -27 -31 -25 -3 -22 -4 10 -3 37 1 40 -1 25 -11 -9
-7 -25 -13 -34 -13 -10 0 -21 -4 -24 -10 -10 -15 -23 -12 -28 7 -3 11 -5 7 -6
-10 0 -15 2 -26 7 -25 14 3 44 -15 35 -21 -5 -3 -17 -17 -27 -31 -10 -14 -16
-17 -12 -7 3 9 9 25 12 35 5 14 4 13 -10 -3 -15 -19 -17 -19 -30 -2 -7 9 -23
17 -35 17 -29 0 -28 -34 2 -63 12 -12 23 -29 25 -37 2 -13 1 -13 -10 0 -22 25
-33 20 -33 -15 0 -19 4 -31 10 -27 6 3 4 -2 -4 -11 -7 -9 -17 -15 -21 -12 -4
3 -10 -5 -14 -18 -4 -16 -8 -18 -14 -9 -7 9 -13 8 -27 -8 -10 -11 -15 -23 -12
-27 4 -3 7 -1 7 5 0 7 5 12 12 12 6 0 4 -8 -6 -19 -14 -15 -26 -18 -54 -14
-21 3 -39 9 -42 12 -3 4 -18 12 -33 19 -24 10 -35 9 -74 -8 -47 -20 -68 -18
-59 6 7 18 -15 18 -40 -1 -24 -18 -40 -19 -25 -2 6 8 7 17 3 22 -8 8 59 1 98
-10 24 -7 24 -7 5 8 -22 18 -110 23 -120 7 -3 -6 -10 -10 -16 -10 -14 0 -11
28 4 33 6 2 1 2 -13 0 -32 -6 -36 -11 -22 -25 7 -7 12 -19 12 -27 0 -9 -10 -3
-27 16 -23 25 -32 29 -51 22 -17 -7 -23 -6 -19 4 2 7 18 11 36 10 17 -1 29 3
26 8 -4 5 -17 9 -31 9 -16 0 -23 4 -18 11 3 6 15 9 25 6 21 -6 27 18 7 26 -10
4 -10 7 -1 14 7 5 11 22 9 38 -5 39 10 66 30 58 10 -4 15 -1 13 8 -5 24 12 59
28 59 8 0 13 6 10 13 -6 15 39 94 50 89 4 -2 9 2 12 9 2 7 -1 9 -8 5 -7 -5 -9
-1 -5 9 5 13 9 13 22 3 13 -11 15 -10 9 6 -9 22 31 106 50 106 7 0 13 6 13 13
0 9 2 9 8 -1 6 -8 9 -2 9 17 0 17 -4 28 -8 25 -5 -3 3 18 18 46 14 28 28 48
30 46 3 -2 0 -13 -6 -24 -13 -25 -14 -32 -3 -32 11 0 32 46 32 70 0 11 6 18
13 16 6 -1 9 -1 5 1 -5 3 -8 13 -8 24 0 12 5 16 15 13 8 -4 15 -1 15 5 0 6 5
11 10 11 6 0 10 -11 10 -24 0 -23 22 -41 34 -29 3 4 6 23 6 44 0 32 -3 36 -20
32 -15 -4 -19 -2 -14 10 3 8 1 18 -5 22 -7 4 -11 -3 -11 -16 0 -16 -3 -20 -10
-13 -7 7 -6 21 4 45 9 19 15 28 16 20 0 -11 3 -11 16 0 15 12 16 10 10 -21 -6
-29 -5 -32 5 -17 11 18 9 41 -6 82 -6 17 -5 17 5 5 9 -12 11 -10 6 12 -4 17
-1 32 9 42 8 8 15 21 15 30 0 18 20 32 20 14 1 -7 7 -2 15 12 17 30 19 44 4
34 -14 -8 -1 38 13 47 5 3 6 12 3 21 -3 8 1 21 10 28 8 7 15 23 15 37 0 27 25
42 43 24 8 -8 7 -11 -5 -11 -24 0 -42 -58 -24 -76 8 -8 21 -14 28 -14 9 1 8 5
-4 14 -19 14 -14 56 9 69 18 11 16 27 -4 42 -10 8 -13 17 -8 25 7 11 10 9 17
-6 7 -16 8 -16 3 4 -3 12 -8 32 -11 45 -5 17 -4 19 5 7 8 -12 11 -8 11 18 0
17 4 32 8 32 7 0 16 31 42 148 14 64 26 79 27 36 1 -22 -2 -32 -7 -24 -4 7 -7
-18 -5 -54 1 -37 4 -69 7 -72 3 -3 5 20 4 50 0 30 2 57 5 60 3 4 23 7 43 8 35
1 36 3 36 38 0 37 -24 74 -32 49 -5 -16 -48 -2 -48 16 0 8 5 17 10 20 6 3 10
21 10 38 0 18 5 39 10 47 6 10 8 -7 5 -50 l-4 -65 16 35 17 35 6 -30 c4 -20 7
-9 6 35 0 60 0 62 -9 28 -5 -21 -13 -38 -17 -38 -4 0 -3 16 3 36 8 28 8 37 -2
43 -11 7 -11 13 0 32 15 29 34 49 47 49 10 0 32 44 32 65 0 27 20 15 21 -12
l2 -28 4 28 c4 24 8 27 44 27 39 0 39 0 39 40 l0 40 -45 0 -45 0 6 -39 c6 -38
6 -39 -21 -33 -19 3 -26 1 -21 -6 8 -14 -13 -59 -32 -67 -12 -4 -12 -1 2 19 9
14 16 32 16 41 0 9 8 30 17 48 9 18 16 36 15 40 -1 5 2 6 7 3 5 -3 12 9 15 28
4 18 17 54 30 80 l23 46 17 -22 c16 -22 16 -22 13 22 -3 34 2 58 21 98 25 50
41 65 43 40 0 -7 4 -4 9 7 13 31 11 39 -7 24 -15 -13 -15 -11 1 13 9 14 24 29
32 32 9 4 14 15 12 28 -3 20 -9 23 -41 22 -25 -1 -35 2 -28 9 5 5 7 16 4 23
-3 8 0 14 6 14 6 0 11 -7 11 -15 0 -8 4 -15 10 -15 5 0 6 7 3 17 -4 11 -3 14
5 9 7 -4 12 -2 12 3 0 6 7 11 15 11 8 0 15 -4 15 -10 0 -5 -4 -10 -10 -10 -5
0 -10 -7 -10 -15 0 -8 2 -15 5 -15 11 0 50 46 47 55 -2 6 0 7 4 3 4 -4 12 -4
18 1 6 5 34 14 61 19 28 5 57 12 66 16 11 5 19 -1 27 -19 14 -30 32 -33 32 -5
0 11 -5 20 -11 20 -5 0 -8 4 -5 9 8 12 56 20 56 10 0 -5 -7 -9 -15 -9 -8 0
-15 -4 -15 -10 0 -5 7 -10 16 -10 14 0 14 -3 4 -15 -11 -13 -6 -15 40 -15 l52
0 -4 50 -3 51 30 -6 c22 -5 26 -4 15 4 -13 9 -13 11 0 15 50 19 110 33 110 26
0 -11 -57 -33 -69 -26 -5 4 -12 2 -15 -3 -10 -16 55 -29 157 -31 l97 -1 0 45
c0 33 -4 46 -14 46 -8 0 -17 4 -21 9 -7 12 66 2 80 -10z m-4141 -38 c140 -79
270 -180 405 -316 63 -63 123 -115 133 -115 30 0 22 56 -17 127 -20 36 -31 62
-26 59 14 -9 91 -143 91 -159 0 -9 4 -17 8 -19 15 -6 83 -138 127 -248 46
-114 51 -131 38 -129 -5 1 -54 1 -110 0 -94 -1 -103 -3 -103 -20 0 -24 65 -35
158 -26 291 27 360 43 552 125 63 27 87 33 150 32 83 0 180 -32 235 -77 l30
-25 -40 17 c-28 11 -69 16 -135 16 -151 -1 -268 -33 -461 -127 -131 -64 -161
-84 -223 -144 -120 -117 -176 -223 -176 -328 0 -60 1 -63 50 -115 28 -29 50
-55 50 -56 0 -2 -19 -29 -43 -61 l-43 -58 -79 28 c-47 17 -94 43 -117 63 -46
42 -77 51 -114 32 -26 -12 -40 -11 -144 15 -172 42 -243 56 -396 78 -76 11
-142 20 -145 20 -15 0 -19 34 -9 71 13 47 82 118 147 150 41 21 62 24 148 23
90 -1 108 -4 175 -33 107 -47 123 -49 118 -20 -6 44 -146 97 -287 108 l-84 6
44 40 c86 80 201 274 215 365 8 48 72 117 148 158 54 30 67 48 40 59 -21 8
-107 -35 -153 -78 -18 -16 -35 -29 -36 -27 -1 2 4 25 12 52 10 33 29 63 64 98
40 40 48 53 38 64 -13 16 -35 7 -80 -34 -33 -29 -79 -115 -79 -148 0 -19 -7
-23 -56 -29 -113 -14 -276 -100 -371 -197 -89 -89 -214 -285 -236 -367 -6 -23
-6 -23 -48 18 -40 38 -147 101 -174 101 -7 0 -19 7 -26 16 -11 14 -10 19 11
36 77 60 179 168 230 243 18 28 38 53 43 56 5 3 8 8 6 10 -1 2 7 22 18 44 27
54 41 120 48 238 10 152 25 177 110 177 27 0 40 -8 69 -42 37 -46 56 -44 62 4
1 13 3 26 3 30 1 4 18 5 39 2 186 -25 270 -48 402 -113 94 -47 214 -119 175
-106 -11 4 -40 9 -65 12 l-45 6 44 -34 c68 -52 79 -136 32 -239 -38 -84 -20
-94 44 -25 60 64 81 159 51 226 -6 13 -2 16 17 12 133 -26 -192 307 -454 464
-58 35 -62 46 -5 14z m6 -73 c47 -28 103 -65 125 -82 61 -46 185 -157 185
-166 0 -4 -37 12 -83 35 -83 42 -218 88 -292 99 -96 16 -98 16 -82 34 8 10 22
43 32 75 10 31 21 57 24 57 4 0 45 -23 91 -52z m3315 -113 c-1 -20 -7 -41 -14
-48 -6 -6 -11 -16 -11 -23 0 -6 -7 -15 -16 -18 -8 -3 -13 -9 -10 -14 2 -4 1
-14 -5 -22 -6 -11 -9 -9 -9 11 0 15 -7 30 -16 33 -11 4 -15 14 -12 31 3 14 1
25 -5 25 -6 0 -7 -17 -4 -40 5 -39 4 -41 -25 -47 -29 -6 -30 -7 -12 -21 18
-13 17 -14 -14 -8 -19 3 -31 2 -27 -3 12 -21 -31 -15 -49 7 -12 15 -24 21 -37
17 -11 -4 -19 -2 -19 5 0 7 -7 10 -15 6 -8 -3 -15 0 -15 5 0 6 9 9 20 6 20 -5
28 7 11 18 -13 7 -62 -16 -55 -26 3 -5 -1 -9 -9 -9 -7 0 -14 7 -14 15 0 8 4
12 8 9 4 -2 13 2 21 9 7 7 34 22 61 32 26 10 47 22 47 27 0 5 10 4 22 -3 18
-10 20 -9 15 5 -10 25 7 27 84 7 41 -11 66 -20 57 -20 -11 -1 -18 -9 -18 -21
0 -27 14 -25 34 5 18 27 15 30 -49 48 -11 3 -1 5 23 4 38 -2 42 0 42 21 0 13
4 21 8 18 5 -3 8 -22 7 -41z m-591 0 c3 -8 13 -14 23 -14 17 1 17 2 1 6 -10 2
-18 8 -18 12 0 5 18 3 41 -3 40 -10 40 -11 14 -19 -20 -7 -24 -12 -14 -18 10
-6 7 -13 -14 -29 -15 -12 -27 -30 -27 -41 0 -21 -20 -28 -97 -33 -58 -3 -76
-12 -53 -26 8 -6 10 -10 4 -10 -5 0 -19 6 -29 14 -16 12 -17 16 -6 30 7 9 24
16 37 16 13 0 24 5 24 11 0 6 -7 9 -15 5 -8 -3 2 17 23 44 24 32 45 49 60 49
12 1 22 6 22 11 0 15 17 12 24 -5z m-3321 -127 c4 -24 2 -38 -5 -38 -19 0
-120 -89 -181 -159 -104 -120 -191 -267 -203 -346 l-6 -42 -56 1 c-42 1 -66
-5 -92 -21 l-35 -21 -62 73 c-35 40 -63 78 -63 84 0 6 19 11 43 11 40 0 74
-16 140 -63 32 -23 50 -15 71 36 63 149 135 259 242 364 70 70 193 169 199
161 1 -2 5 -20 8 -40z m6296 -178 c4 -14 12 -23 17 -20 11 5 39 -49 29 -58 -8
-8 -25 19 -19 29 2 4 0 10 -6 14 -5 3 -10 0 -10 -7 0 -9 -3 -9 -10 2 -7 11
-10 4 -10 -26 0 -44 11 -55 53 -53 16 1 14 3 -8 8 -22 5 -31 12 -33 31 -2 23
-1 24 11 8 8 -10 26 -18 40 -18 30 0 44 -17 28 -33 -14 -14 -15 -30 -1 -22 6
3 10 -1 10 -9 0 -9 -4 -16 -10 -16 -5 0 -10 -8 -10 -17 1 -17 1 -17 14 0 16
20 30 23 23 3 -4 -9 2 -13 17 -12 14 0 22 6 19 13 -3 7 17 -9 44 -35 26 -26
47 -53 45 -59 -2 -7 3 -13 11 -13 9 0 29 -11 45 -25 22 -19 28 -31 27 -57 -3
-36 19 -68 44 -67 13 0 14 2 1 6 -18 8 -44 33 -33 33 4 0 21 -7 36 -15 15 -8
35 -11 45 -8 16 6 16 6 0 -11 -10 -9 -18 -25 -17 -34 0 -14 3 -13 15 5 14 19
19 20 37 10 24 -13 38 -29 32 -36 -3 -2 -11 1 -18 8 -18 14 -47 4 -47 -16 0
-13 3 -13 15 -3 9 7 19 10 22 6 4 -4 1 -11 -7 -16 -12 -8 -12 -10 -1 -10 7 0
33 13 57 30 24 16 44 25 44 20 0 -5 -9 -14 -21 -20 -25 -14 -18 -24 10 -15 16
5 21 15 21 41 0 19 -5 34 -11 34 -5 0 -7 -4 -4 -10 13 -21 -8 -9 -27 15 -11
14 -25 25 -32 25 -7 0 -21 10 -32 22 -10 12 -13 18 -6 14 15 -9 42 16 43 41 1
17 2 17 6 1 3 -11 14 -18 27 -18 12 0 28 -6 35 -12 11 -11 13 -9 8 9 -6 26 16
62 27 45 4 -7 4 -12 -1 -12 -4 0 -9 -10 -9 -23 -1 -20 3 -22 35 -21 20 0 45 4
56 8 17 6 17 6 3 -3 -10 -7 -14 -19 -11 -31 3 -12 -1 -22 -11 -26 -19 -7 -21
-24 -3 -24 20 0 51 37 38 45 -13 8 -14 25 -2 25 9 0 37 -68 33 -82 -1 -4 5 -5
14 -1 18 7 43 -24 44 -54 0 -13 5 -23 10 -23 6 0 11 -19 11 -42 1 -39 2 -40 8
-13 5 24 8 26 13 13 4 -10 5 -24 2 -32 -3 -8 -1 -17 5 -21 6 -3 11 -24 11 -46
0 -24 -4 -38 -10 -34 -5 3 -10 -1 -10 -10 0 -10 5 -13 12 -9 8 5 9 0 4 -17 -4
-13 -7 -34 -7 -45 0 -12 -6 -27 -14 -34 -9 -8 -15 -8 -15 -2 0 6 -3 19 -6 29
-5 17 -5 17 10 -1 14 -17 15 -16 9 20 -7 45 -13 57 -13 26 0 -19 -6 -22 -40
-22 l-40 0 0 -40 0 -40 -87 0 c-47 0 -83 -3 -79 -7 5 -5 44 -8 89 -8 59 0 81
-4 85 -14 2 -8 0 -11 -5 -8 -6 4 -24 1 -42 -6 -26 -9 -33 -9 -40 2 -6 9 -22
12 -48 10 -24 -3 -45 1 -52 8 -6 7 -27 13 -46 13 -18 0 -42 3 -52 6 -15 5 -15
4 -3 -5 13 -9 13 -11 -1 -11 -9 0 -22 7 -29 15 -7 8 -22 15 -34 15 -37 0 -66
12 -66 26 0 15 -43 29 -59 20 -14 -9 -62 4 -55 15 3 5 -5 9 -18 9 -13 1 -34 8
-48 16 l-25 15 28 -4 c37 -6 35 12 -3 20 -16 3 -30 9 -30 14 0 12 27 11 35 -1
9 -14 27 -12 22 3 -2 8 -27 12 -74 12 -39 0 -69 -4 -66 -9 3 -5 0 -6 -8 -4 -9
3 -13 17 -12 42 2 22 -1 35 -7 31 -6 -4 -8 -11 -5 -16 4 -5 -1 -9 -9 -9 -9 0
-16 -4 -16 -9 0 -5 -10 -7 -22 -3 -20 5 -21 6 -3 12 13 5 15 9 6 14 -6 4 -19
2 -27 -5 -8 -6 -18 -9 -21 -5 -12 12 20 27 45 21 12 -3 32 1 43 8 17 13 12 14
-48 12 -75 -2 -105 7 -97 30 5 11 -2 15 -22 17 -16 0 -35 2 -43 2 -8 1 -16 6
-18 12 -3 8 9 9 39 3 70 -13 128 -11 128 5 0 21 -203 22 -220 1 -7 -8 -17 -15
-22 -15 -6 0 -5 7 2 15 11 14 10 14 -11 7 -27 -10 -78 7 -72 24 2 6 -10 8 -31
6 -25 -3 -43 2 -62 17 -15 12 -33 21 -40 21 -8 0 -14 3 -14 8 0 4 -18 8 -41 9
-46 1 -45 -5 3 -18 26 -7 23 -7 -17 -3 -27 3 -63 12 -79 20 -34 16 -50 18 -41
4 3 -6 -1 -7 -9 -4 -9 3 -16 10 -16 16 0 5 -16 6 -37 2 -22 -4 -34 -3 -30 2 5
5 12 9 15 9 4 1 17 5 30 9 13 4 28 4 35 -1 15 -12 97 4 97 18 0 6 -8 6 -20 -1
-14 -7 -26 -8 -38 -1 -13 8 -14 10 -2 11 8 0 36 11 62 25 26 14 51 25 55 25 4
-1 -3 -7 -17 -15 -24 -13 -24 -13 14 -10 45 4 75 25 36 25 -25 0 -25 0 4 15
15 8 37 15 48 15 16 0 19 -5 14 -24 -3 -14 -2 -28 4 -31 6 -4 10 10 10 35 0
25 -4 39 -10 35 -5 -3 -10 -1 -10 5 0 7 8 9 21 5 15 -5 19 -4 15 4 -5 8 0 8
18 0 18 -9 26 -21 29 -48 3 -31 4 -30 3 8 0 34 5 48 23 62 24 19 18 26 -9 10
-8 -6 -18 -7 -23 -4 -5 3 3 13 16 22 14 9 40 27 59 41 18 13 27 17 20 8 -11
-13 -9 -17 14 -22 15 -4 31 -3 37 3 7 7 3 8 -12 4 -12 -3 -21 -1 -21 6 0 10
16 15 48 14 14 -1 15 7 2 27 -8 13 -11 12 -23 -4 -10 -13 -16 -15 -21 -8 -4 7
3 17 18 24 14 6 26 15 26 20 0 5 8 5 18 0 9 -5 47 -10 84 -11 l68 -2 -1 71
c-1 39 -5 68 -10 64 -5 -3 -9 0 -9 5 0 19 -17 12 -23 -9 -3 -11 -10 -20 -16
-20 -7 0 -7 8 1 25 6 14 18 25 26 25 9 0 12 3 9 6 -3 4 -1 16 5 28 11 20 12
20 24 -9 10 -23 13 -25 14 -10 1 19 1 19 14 3 22 -29 25 -21 10 29 -8 25 -14
51 -13 57 0 11 43 -96 58 -144z m-6225 114 c22 -21 20 -33 -7 -43 -47 -18
-107 -111 -107 -165 0 -28 27 -41 61 -31 l20 7 -20 -39 c-38 -76 -199 -260
-273 -314 l-27 -20 -42 28 c-40 26 -41 28 -37 73 9 93 97 242 224 378 71 77
154 142 180 142 7 0 20 -7 28 -16z m7071 -229 c215 -37 423 -135 628 -296 l48
-38 35 24 c101 69 315 31 366 -65 37 -70 18 -184 -41 -240 -49 -47 -101 -61
-222 -61 -75 0 -99 -3 -96 -12 7 -21 105 -31 184 -18 71 10 99 21 136 50 15
12 20 12 37 -4 11 -10 32 -42 46 -72 35 -71 30 -131 -15 -197 -50 -73 -101
-101 -180 -101 -56 0 -75 5 -128 35 -58 32 -84 36 -68 10 14 -22 112 -70 158
-76 57 -8 59 -21 10 -64 -56 -49 -97 -63 -165 -56 -143 17 -202 54 -254 161
-36 75 -46 85 -93 85 -46 0 -182 38 -251 71 -67 31 -146 85 -154 106 -3 7 6
32 19 55 44 78 43 200 -2 297 -53 114 -159 241 -202 241 -14 0 -37 9 -51 20
-32 25 -50 25 -50 1 0 -32 -20 -35 -49 -7 -39 37 -50 34 -44 -16 6 -40 5 -41
-18 -34 -13 5 -42 13 -65 20 -50 14 -74 32 -74 57 0 32 61 88 125 114 54 22
75 25 200 25 81 0 178 -7 230 -15z m-6469 -19 c18 -14 18 -15 -9 -25 -16 -6
-31 -11 -35 -11 -15 0 -63 -53 -82 -89 -11 -22 -22 -58 -26 -80 -8 -53 6 -72
49 -64 l31 6 -44 -62 c-55 -78 -121 -139 -236 -218 -110 -75 -190 -119 -229
-127 -28 -6 -31 -3 -49 39 -22 55 -17 94 26 179 110 218 277 378 458 440 86
29 118 32 146 12z m1552 -198 c108 -40 208 -171 233 -303 13 -71 5 -284 -15
-401 -54 -303 -185 -524 -429 -719 -232 -185 -463 -228 -822 -153 -55 11 -112
23 -128 26 -34 5 -43 18 -27 38 10 11 25 13 60 8 62 -8 131 14 200 66 53 39
63 41 106 13 32 -20 154 -53 197 -53 81 0 140 107 88 159 -11 11 -45 24 -78
30 -68 14 -126 38 -119 50 3 4 31 18 63 29 74 27 144 72 170 108 36 51 55 122
43 159 -18 55 -61 60 -141 15 -105 -59 -194 -100 -216 -100 l-23 0 22 35 c17
26 30 35 51 35 30 0 33 6 13 29 -12 14 -11 21 10 53 18 29 34 40 77 52 79 23
173 104 149 128 -6 6 -24 3 -48 -10 -22 -10 -55 -22 -75 -25 -35 -5 -36 -4
-47 38 -14 54 -56 105 -87 105 -14 0 -36 -14 -55 -37 -31 -35 -34 -36 -59 -22
-40 23 -71 76 -71 123 0 73 58 174 152 269 67 67 102 92 183 134 168 86 288
124 455 146 42 6 112 -5 168 -25z m-2937 -36 c107 -118 110 -123 74 -175 -11
-16 -17 -13 -77 30 -35 27 -74 55 -85 63 l-22 15 31 53 c16 28 33 52 37 52 4
0 23 -17 42 -38z m336 -89 c21 -9 56 -36 78 -59 22 -23 51 -45 65 -49 102 -30
219 -130 262 -225 19 -42 26 -49 43 -43 22 7 94 5 107 -3 4 -3 8 -23 8 -45 l0
-40 -57 6 c-114 11 -306 11 -310 -1 -4 -12 19 -14 275 -30 73 -4 102 -10 102
-19 0 -7 -29 -40 -65 -74 l-66 -61 -74 41 c-41 22 -79 38 -85 34 -16 -10 -5
-21 55 -55 30 -17 55 -35 55 -40 0 -15 -73 -34 -128 -33 -86 2 -174 68 -235
176 -25 45 -42 48 -33 7 3 -16 1 -30 -4 -30 -19 0 -145 127 -181 183 -35 54
-68 151 -55 164 3 3 21 -6 41 -21 56 -43 63 -20 9 35 l-47 48 12 41 c6 22 15
40 19 40 3 0 16 -12 28 -27 16 -20 26 -25 34 -17 8 8 5 18 -11 38 -26 33 -19
52 23 72 38 17 82 13 135 -13z m-371 -93 c46 -34 86 -66 90 -71 3 -6 -3 -20
-14 -32 -47 -51 -67 -108 -70 -204 -4 -87 18 -282 39 -355 5 -17 7 -33 5 -36
-6 -5 -42 79 -73 168 -14 41 -36 104 -50 140 -55 149 -70 286 -43 398 6 29 16
52 22 52 5 0 48 -27 94 -60z m117 -179 c8 -27 38 -88 66 -136 116 -193 148
-295 161 -525 13 -230 33 -300 107 -376 100 -103 215 -99 334 12 90 85 203
277 239 407 7 26 15 47 18 47 21 0 262 -201 262 -218 0 -25 -67 -126 -112
-167 -72 -68 -84 -76 -134 -90 -27 -7 -74 -23 -104 -34 -30 -12 -56 -21 -58
-21 -2 0 15 21 37 47 28 31 38 50 32 56 -7 7 -35 -14 -84 -60 -198 -188 -337
-227 -455 -128 -64 53 -91 130 -117 325 -15 115 -26 150 -50 150 -16 0 -20
-21 -6 -36 13 -14 22 -74 11 -74 -16 0 -99 112 -129 175 -45 93 -68 180 -86
324 -21 166 -17 260 14 324 12 26 27 47 31 47 5 0 15 -22 23 -49z m-1258 -126
c22 -7 58 -23 81 -34 35 -17 56 -19 160 -16 65 1 146 6 180 10 54 6 67 4 120
-20 32 -15 70 -38 84 -49 14 -12 63 -47 110 -76 47 -30 87 -57 90 -60 3 -3 13
-9 22 -15 86 -51 304 -194 318 -210 56 -62 132 -151 186 -216 54 -65 62 -80
67 -130 9 -73 39 -167 70 -216 92 -144 241 -164 410 -54 40 26 79 51 87 56 8
5 -6 -15 -32 -45 -43 -49 -61 -90 -40 -90 4 0 43 36 86 79 104 104 171 139
299 152 147 16 195 26 269 61 l71 32 35 -39 c122 -139 152 -177 152 -188 0
-17 -173 -210 -251 -279 -35 -32 -71 -64 -79 -72 -61 -56 -274 -196 -332 -219
-10 -3 -18 -11 -18 -17 0 -17 27 -22 50 -10 20 11 21 10 11 -9 -6 -11 -11 -32
-11 -46 0 -36 34 -30 38 7 3 25 75 118 91 118 5 0 9 -27 9 -61 1 -33 6 -77 13
-97 28 -86 94 -156 127 -135 12 7 31 1 77 -26 63 -38 195 -164 195 -187 0 -8
4 -14 9 -14 11 0 64 -108 86 -174 24 -73 45 -181 45 -230 0 -23 6 -51 14 -62
14 -18 15 -18 22 -1 12 31 -4 157 -32 252 -40 137 -40 139 -9 153 82 38 213
-10 420 -154 276 -192 367 -451 168 -479 -66 -9 -115 11 -132 54 -8 17 -20 31
-27 31 -24 0 -15 -48 14 -81 24 -27 37 -33 86 -37 55 -4 57 -6 51 -29 -9 -36
-52 -100 -75 -113 -23 -12 -81 -5 -121 16 -14 7 -48 30 -75 52 -50 39 -50 40
-63 121 -6 45 -21 116 -32 159 -12 42 -22 84 -24 92 -10 50 -68 180 -81 180
-20 0 -19 -4 30 -152 24 -73 51 -175 60 -227 56 -330 -32 -453 -280 -391 -49
13 -94 26 -99 31 -6 4 -35 17 -65 29 -76 30 -330 179 -366 215 -8 8 -18 15
-22 15 -4 0 -22 14 -41 30 -36 32 -71 39 -71 15 0 -7 8 -18 17 -24 14 -7 9
-11 -27 -21 -56 -15 -178 -6 -253 19 -73 24 -199 99 -191 113 4 6 3 8 -3 5 -6
-4 -89 69 -185 163 -96 93 -192 183 -214 200 -21 17 -47 37 -56 45 -10 8 -29
17 -43 21 -14 3 -27 10 -30 14 -3 5 -14 52 -25 106 -20 99 -32 126 -50 108 -6
-6 0 -53 15 -129 55 -266 22 -452 -95 -535 l-29 -21 15 48 c8 26 18 100 21
163 5 103 3 125 -21 215 -82 309 -303 642 -481 726 -63 30 -139 38 -176 19
-24 -13 -25 2 -1 22 58 48 159 52 247 9 176 -86 390 -451 441 -751 9 -58 21
-109 26 -115 13 -14 27 14 23 45 -19 123 -32 179 -62 267 -33 97 -120 280
-149 314 -8 8 -14 19 -14 23 0 4 -16 27 -36 51 -34 42 -35 45 -21 72 28 54
101 103 153 103 15 0 44 -5 66 -12 42 -12 40 -8 58 -133 10 -70 44 -191 70
-250 5 -11 29 -65 53 -120 42 -96 140 -272 182 -330 56 -75 83 -106 153 -176
42 -41 104 -93 137 -114 33 -22 62 -43 63 -47 2 -5 7 -6 11 -3 5 2 27 -4 49
-15 118 -57 298 -64 404 -16 264 119 197 348 -223 766 -86 86 -124 141 -208
303 -68 131 -94 201 -117 317 -32 162 -74 242 -135 255 -44 10 -112 -35 -161
-106 l-17 -24 0 29 c-2 101 -67 210 -111 186 -10 -6 -21 -10 -24 -10 -10 0 14
54 41 93 17 25 23 41 16 48 -14 14 -38 2 -54 -29 l-13 -27 -5 35 c-4 22 -12
35 -21 35 -12 0 -14 -13 -12 -67 3 -55 -2 -83 -29 -162 -18 -52 -36 -93 -40
-90 -18 11 -299 446 -299 462 0 5 -9 21 -20 34 -16 22 -44 80 -80 173 -51 131
-77 179 -109 206 -27 22 -36 37 -38 65 -3 49 -9 64 -27 64 -12 0 -15 -11 -13
-48 2 -40 -3 -54 -25 -81 -16 -18 -28 -36 -28 -40 0 -4 14 -29 32 -56 30 -45
31 -49 17 -74 -18 -32 -64 -39 -108 -16 -52 26 -65 58 -71 169 -6 125 -15 134
-140 142 -113 7 -160 25 -209 81 -45 49 -54 94 -23 112 23 14 30 13 77 -4z
m3395 -198 c0 -53 -66 -181 -89 -172 -94 35 -131 52 -131 60 0 5 10 21 21 35
11 14 32 43 46 65 14 22 42 57 62 78 l36 37 28 -32 c19 -23 27 -43 27 -71z
m-1095 63 c66 -11 154 -28 195 -36 41 -9 95 -20 120 -25 24 -5 71 -17 102 -25
56 -16 58 -18 58 -51 0 -20 12 -57 27 -85 l27 -49 -34 -65 c-27 -52 -34 -80
-38 -142 -5 -82 -10 -93 -72 -142 l-35 -28 -75 69 -75 69 0 110 c0 61 2 110 4
110 3 0 16 -14 31 -32 18 -21 32 -29 43 -25 41 16 11 57 -118 165 -21 18 -89
57 -149 87 -112 54 -191 115 -150 115 10 0 73 -9 139 -20z m-2358 -24 c19 -33
79 -56 168 -63 l90 -6 -55 -25 c-45 -19 -67 -23 -120 -20 -114 7 -170 51 -132
104 19 27 37 30 49 10z m2361 -116 c125 -59 148 -79 163 -143 12 -54 9 -180
-4 -193 -4 -4 -22 6 -40 22 -35 33 -153 127 -201 160 -30 21 -31 22 -27 100 3
77 6 94 18 94 3 0 44 -18 91 -40z m-2047 18 c6 -52 -4 -105 -23 -120 -26 -23
-142 -25 -164 -4 -30 31 -10 76 34 76 26 0 108 35 117 50 9 14 35 12 36 -2z
m2713 -63 c17 -24 21 -44 21 -100 0 -38 -3 -77 -5 -85 -3 -10 2 -15 15 -15 20
-1 23 -15 10 -47 -12 -29 30 -22 43 7 12 26 8 50 -14 76 -12 13 -6 23 44 72
l57 56 70 -31 c39 -17 72 -32 74 -34 2 -2 -8 -21 -23 -42 -30 -44 -32 -57 -10
-66 39 -15 92 -4 164 34 41 21 98 51 126 66 62 33 84 28 84 -19 0 -98 -65
-160 -240 -227 -19 -7 -40 -17 -46 -22 -36 -27 38 -83 122 -94 27 -4 62 -13
77 -21 25 -13 28 -18 22 -46 -9 -42 -20 -54 -55 -62 -34 -7 -161 25 -217 55
-50 27 -75 25 -104 -6 -33 -35 -96 -71 -140 -79 -27 -5 -50 -1 -84 14 -60 26
-67 26 -60 -1 4 -15 -3 -35 -20 -57 -14 -19 -25 -31 -25 -25 0 5 -19 29 -41
54 -23 25 -58 63 -78 85 -66 73 -66 66 -6 113 31 24 56 38 60 32 3 -5 13 -10
21 -10 17 0 19 27 2 33 -9 2 -13 29 -13 88 1 75 4 90 33 143 18 32 32 64 32
70 0 6 -13 39 -30 74 -41 86 -35 94 47 68 46 -16 71 -30 87 -51z m3255 -189
c36 -19 86 -114 111 -211 16 -63 18 -85 9 -132 -32 -173 -241 -423 -433 -520
-28 -14 -79 -48 -114 -76 -92 -75 -282 -299 -282 -334 0 -26 19 -12 65 50 26
34 50 62 54 62 3 -1 31 -9 61 -19 74 -24 329 -33 482 -17 156 17 239 35 338
74 47 19 119 42 160 53 94 23 242 26 285 4 72 -36 98 -166 53 -258 -13 -25
-65 -89 -116 -143 -107 -113 -168 -149 -297 -175 -109 -22 -337 -14 -450 16
-56 15 -123 23 -227 27 -166 6 -191 3 -214 -32 -15 -24 -15 -28 0 -68 26 -66
115 -177 184 -229 108 -80 317 -178 447 -209 113 -27 205 -99 205 -160 0 -68
-137 -167 -267 -191 -51 -9 -73 -9 -129 5 -116 29 -221 99 -434 291 -103 93
-203 146 -275 147 -28 1 -98 -4 -157 -12 -86 -10 -119 -10 -178 0 -175 32
-314 151 -344 297 l-7 31 148 -1 c188 -1 206 17 26 25 -195 9 -291 44 -371
135 -55 62 -76 128 -76 234 0 47 3 94 8 105 7 19 10 18 37 -15 19 -22 32 -31
39 -24 24 24 -65 108 -269 253 -72 52 -131 99 -131 104 0 6 11 29 25 53 32 54
16 66 -26 19 -18 -19 -37 -35 -44 -35 -16 0 -59 48 -81 90 -11 22 -19 65 -22
115 -6 115 20 179 107 266 70 69 176 129 230 129 68 0 112 -70 147 -237 27
-129 49 -178 137 -310 40 -61 68 -93 80 -93 15 0 16 3 6 21 -10 20 -9 21 17
15 155 -33 195 -38 299 -33 83 3 102 2 78 -6 -18 -5 -33 -16 -33 -24 0 -11 8
-13 33 -8 83 17 242 141 479 373 127 125 186 192 252 285 140 199 203 266 279
294 44 16 63 15 96 -1z m-3670 -250 l55 -54 -70 -32 c-89 -42 -265 -62 -201
-23 23 14 109 125 119 155 12 34 21 30 97 -46z m-1309 -301 c7 -8 23 -58 36
-112 13 -53 27 -99 30 -102 3 -3 18 10 32 29 50 66 109 120 132 120 50 0 104
-105 125 -245 12 -75 46 -170 105 -290 85 -173 126 -231 269 -380 205 -213
316 -378 328 -488 13 -125 -113 -213 -302 -211 -105 0 -181 20 -275 71 -183
99 -341 282 -475 552 -183 366 -222 609 -146 915 16 64 27 87 58 118 39 40 63
47 83 23z m3640 -235 c0 -27 3 -50 6 -50 3 0 20 11 37 24 18 14 45 30 62 36
26 10 31 8 46 -11 l16 -22 30 21 c16 11 42 24 57 28 28 7 28 6 21 -26 -7 -31
-6 -33 16 -26 46 15 82 19 76 9 -3 -5 -35 -24 -69 -42 -78 -39 -168 -49 -288
-32 -93 14 -215 49 -205 59 20 20 144 80 168 81 26 1 27 -1 27 -49z m-1513
-301 c130 -27 284 -38 383 -28 46 4 86 6 88 4 2 -1 -30 -11 -70 -21 -58 -14
-134 -19 -373 -23 -232 -5 -306 -9 -325 -20 -14 -8 -26 -14 -28 -12 -17 12
-222 -169 -282 -250 -19 -26 -38 -48 -42 -48 -7 -1 -101 78 -106 88 -1 4 13
12 31 19 18 6 42 20 53 29 11 10 35 29 55 43 29 20 146 121 193 166 27 25 113
69 150 75 57 10 164 1 273 -22z m-2882 -14 c22 -10 76 -55 120 -99 135 -136
248 -326 321 -541 36 -104 38 -117 38 -240 1 -157 -16 -228 -66 -270 -26 -22
-37 -25 -67 -20 -104 19 -202 134 -404 470 -97 161 -170 263 -200 275 -12 5
-35 12 -52 15 -38 8 -121 95 -147 152 -36 80 2 144 113 192 87 37 86 38 91
-19 10 -99 83 -153 203 -148 41 2 69 7 67 13 -1 6 -21 8 -43 7 -57 -5 -131 15
-162 44 -23 21 -47 77 -47 111 0 14 52 64 78 75 28 12 114 3 157 -17z"/>
<path d="M1490 5256 c0 -22 153 -179 230 -236 129 -95 271 -139 370 -113 44
12 49 40 5 33 -57 -10 -140 -4 -192 14 -85 28 -200 111 -304 217 -52 55 -99
99 -102 99 -4 0 -7 -6 -7 -14z"/>
<path d="M6640 6181 c0 -20 -4 -30 -10 -26 -6 4 -17 1 -25 -5 -11 -9 -18 -9
-30 4 -25 25 -62 30 -98 13 -17 -9 -41 -15 -51 -14 -10 1 -20 -4 -22 -11 -1
-7 0 -8 3 -2 2 5 9 10 14 10 6 0 5 -8 -1 -20 -6 -11 -8 -24 -5 -29 3 -5 0 -11
-6 -13 -7 -2 4 -4 24 -4 21 0 39 6 41 13 3 7 13 13 23 13 17 -1 17 -1 1 -14
-15 -11 -13 -13 20 -11 29 1 40 -4 49 -22 6 -12 9 -32 6 -45 -4 -19 -3 -20 6
-8 9 12 10 9 5 -14 -5 -21 -4 -27 5 -22 8 5 11 -10 11 -53 0 -57 8 -75 35 -76
14 -1 25 17 25 43 0 12 5 22 10 22 6 0 10 10 10 23 1 18 3 16 15 -12 8 -18 12
-45 9 -60 -5 -23 -4 -24 6 -8 7 11 10 30 7 43 -2 13 0 24 4 24 5 0 9 4 9 10 0
5 -6 7 -14 4 -9 -4 -16 6 -21 33 -4 21 -10 31 -12 23 -13 -42 -17 -41 -24 5
-5 31 -4 54 2 62 6 7 8 17 5 22 -4 5 -2 12 4 16 5 3 10 -3 10 -14 0 -11 4 -22
9 -26 5 -3 13 -29 16 -59 6 -46 10 -53 26 -49 10 3 19 10 19 17 0 7 4 6 9 -2
5 -9 11 12 15 57 6 63 5 76 -14 107 -15 23 -29 34 -40 32 -10 -2 -32 10 -49
26 l-31 30 0 -33z"/>
<path d="M5260 4860 c-44 -44 -19 -182 41 -223 17 -12 19 -19 10 -35 -6 -12
-11 -38 -11 -60 0 -47 -14 -56 -74 -47 -54 8 -82 -11 -72 -49 13 -54 93 -79
179 -55 33 9 37 13 37 42 0 18 -9 47 -20 65 -20 33 -25 68 -12 88 11 18 103
71 147 84 93 29 111 87 45 140 -85 67 -227 93 -270 50z m187 -49 c52 -24 70
-53 46 -76 -13 -13 -27 -16 -61 -11 -85 12 -160 72 -120 97 23 15 91 9 135
-10z"/>
<path d="M2533 3504 c-23 -23 -25 -31 -21 -89 3 -48 11 -74 33 -110 43 -68 58
-76 89 -42 22 23 33 27 83 27 37 0 67 6 81 16 57 40 -3 138 -122 199 -65 33
-109 33 -143 -1z m159 -43 c108 -69 99 -158 -10 -102 -64 33 -110 100 -85 124
14 15 51 6 95 -22z"/>
</g>
</svg>
